<svg xmlns="http://www.w3.org/2000/svg" viewBox="0 0 63.61 73.52"><defs><style>.cls-1{stroke:#000;stroke-miterlimit:10;stroke-width:0.5px;}</style></defs><title>Asset 3</title><g id="Layer_2" data-name="Layer 2"><g id="Layer_1-2" data-name="Layer 1"><path class="cls-1" d="M22.56,23.19A17.29,17.29,0,0,1,28,18.65a5.37,5.37,0,0,1,.88-.41c.39-.12.45-.39.49-.73.13-1.07.23-2.15.43-3.21A26.7,26.7,0,0,1,34,3.66,8.62,8.62,0,0,1,37,.83a4.23,4.23,0,0,1,6.27,2.66,13.37,13.37,0,0,1,.37,5.34,46,46,0,0,1-1.38,7.55.14.14,0,0,0,0,.14l.15-.29a29.44,29.44,0,0,1,7.05-9.64,12.06,12.06,0,0,1,5.77-2.94,4.61,4.61,0,0,1,4.91,1.69,5.44,5.44,0,0,1,.87,4,21.83,21.83,0,0,1-2.89,7.8,43.14,43.14,0,0,1-4,6.16.61.61,0,0,0,0,.82A16.46,16.46,0,0,1,56.59,33,14.73,14.73,0,0,1,54,41.32a.62.62,0,0,0,0,.77,24.57,24.57,0,0,1,3,8.43,1.27,1.27,0,0,1,.06.28c0,.33.15.43.49.44a6,6,0,0,1,5.76,5.35A8,8,0,0,1,63,60.35a6.35,6.35,0,0,1-5.1,4.39c-.44.09-.52.29-.58.65a13.87,13.87,0,0,1-1,3.75c-.16.34-.37.65-.58,1l.95.09c1.18.12,2.36.22,3.54.35a2.28,2.28,0,0,1,.89.25,1,1,0,0,1,.43.61c.06.31-.19.53-.5.59a22.24,22.24,0,0,1-2.31.38c-6.66.54-13.33.79-20,.8-3.77,0-7.53.07-11.3,0-4.76-.1-9.52-.29-14.27-.49-1.4-.06-2.79-.28-4.18-.45a3.27,3.27,0,0,1-.74-.21.65.65,0,0,1-.48-.63.62.62,0,0,1,.5-.65,10.44,10.44,0,0,1,1.82-.35c3.21-.16,6.41-.32,9.62-.42,2.69-.09,5.37-.11,8.06-.16l.43,0c-.26-.5-.5-1-.77-1.44,0-.06-.24,0-.35,0-1.47.28-2.93.68-4.41.85A24.4,24.4,0,0,1,8.89,67.35,14.43,14.43,0,0,1,1.53,48.23a24.37,24.37,0,0,1,6.73-9.09c.18-.15.32-.26.2-.53a5.77,5.77,0,0,1,3.09-7.37c.06,0,.11-.06.23-.12-.46-.37-.9-.69-1.31-1.05a12.37,12.37,0,0,1-1.21-1.19c-2-2.35-.46-4.72,1.47-5.42a5.42,5.42,0,0,1,4.32.28c1.06.5,1.06.49,1.9-.34a4.17,4.17,0,0,1,3.69-1.33A3,3,0,0,1,22.56,23.19Zm0,11.83c.12.09.24.19.38.28,1.32.86,2.65,1.7,4,2.58a28.71,28.71,0,0,1,7.72,7.06.51.51,0,0,0,.41.15c1.27-.25,2.53-.55,3.81-.77A22.38,22.38,0,0,1,41.54,44a1.2,1.2,0,0,1,1.22.93,1.25,1.25,0,0,1-.71,1.3,4.28,4.28,0,0,1-.86.34c-1.78.45-3.55.89-5.34,1.31a32,32,0,0,0-5.17,1.44A4,4,0,0,0,29,50.52a1.49,1.49,0,0,0,.15,2.2,3.84,3.84,0,0,0,.91.59A8.5,8.5,0,0,0,33,54a23.46,23.46,0,0,0,10.38-1.65c.55-.21,1.09-.48,1.65-.65a1.24,1.24,0,0,1,1.65,1,1.36,1.36,0,0,1-.66,1.39,23.55,23.55,0,0,1-2.68,1.4,21.28,21.28,0,0,1-5.44,1.36c-.28,0-.35.16-.38.4a11.87,11.87,0,0,1-1.5,4.29c-.3.52-.65,1-1,1.53a.6.6,0,0,0,.11.06,1,1,0,0,0,.24,0,35,35,0,0,0,8.43-.19c.81-.12,1.1,0,1.27.84A18.25,18.25,0,0,0,46.46,68,3.3,3.3,0,0,0,49.6,70a9.2,9.2,0,0,0,1,0,3.19,3.19,0,0,0,3-2.24,13.21,13.21,0,0,0,.57-2.31A45.12,45.12,0,0,0,54.15,52a24.18,24.18,0,0,0-1.92-6.67,26.81,26.81,0,0,0-1.71-2.92c-.36-.58-.4-.75,0-1.3a1.84,1.84,0,0,1,.17-.22,12.28,12.28,0,0,0,2.76-6.43,13.83,13.83,0,0,0-2.77-10.21,1,1,0,0,1,0-1.45c.65-.88,1.34-1.73,2-2.62a36.14,36.14,0,0,0,4.79-8.83,7.46,7.46,0,0,0,.64-3.23A1.74,1.74,0,0,0,56,6.42,7.32,7.32,0,0,0,52.35,8a23,23,0,0,0-6.28,7.27c-.69,1.18-1.26,2.44-1.88,3.67a.84.84,0,0,1-1.18.51c-.24-.07-.46-.16-.7-.21-.86-.17-1.72-.34-2.58-.48-.61-.1-.82-.34-.78-1a2.25,2.25,0,0,1,.06-.36c.41-1.8.84-3.6,1.22-5.4a22.13,22.13,0,0,0,.6-6.23,4.14,4.14,0,0,0-.61-2.11,1.24,1.24,0,0,0-1.36-.58,2.83,2.83,0,0,0-1.78,1.18,21.81,21.81,0,0,0-2,3.1,26.54,26.54,0,0,0-2.78,11.54.88.88,0,0,1-.6.9A18.08,18.08,0,0,0,22.56,28c-.47.86-.87,1.76-1.29,2.62C23.08,32,23.26,32.67,22.53,35ZM34.68,57c-.76,0-1.47-.07-2.18-.13a10.1,10.1,0,0,1-5-1.59A4.14,4.14,0,0,1,26,49.88a5.85,5.85,0,0,1,2.77-2.74c.92-.47,1.89-.84,2.91-1.27-.45-.51-.9-1-1.39-1.54a41.63,41.63,0,0,0-6.13-4.95,27.05,27.05,0,0,1-4-3.15.56.56,0,0,0-.42-.11c-.37.07-.72.21-1.08.29-.63.13-1.28.21-1.91.35a.72.72,0,0,0-.38.35c-.21.41-.35.85-.58,1.24a4.49,4.49,0,0,1-5.12,2.23.49.49,0,0,0-.38.11A23.61,23.61,0,0,0,4.07,49.4a11.53,11.53,0,0,0-.76,6.51c.87,4.49,3.63,7.45,7.79,9.17a20,20,0,0,0,6.5,1.33,24.33,24.33,0,0,0,9.91-1.33,11,11,0,0,0,6.21-5.27A8.41,8.41,0,0,0,34.68,57ZM12.51,25.84l0,.08A4.17,4.17,0,0,0,12,26a.75.75,0,0,0-.42,1.3,1.46,1.46,0,0,0,.16.19,31.93,31.93,0,0,1,3.66,4.21.34.34,0,0,0,.29.14c.89-.21,1.78-.42,2.67-.66a.57.57,0,0,0,.3-.36,13.53,13.53,0,0,1,1.12-3.45c.24-.49.5-1,.75-1.44a.72.72,0,0,0,0-.83.62.62,0,0,0-.77-.17,3.9,3.9,0,0,0-1,.58,10.07,10.07,0,0,0-.78.82,2.21,2.21,0,0,1-2,.75,12.13,12.13,0,0,1-1.9-.64C13.55,26.26,13,26,12.51,25.84Zm45,36.1h.21a3.52,3.52,0,0,0,2.69-3.42c0-.5,0-1,0-1.5a2.69,2.69,0,0,0-1.32-2.52,2.34,2.34,0,0,0-1.58-.42Zm-19.23,8h5.42c0-.09-.06-.16-.08-.24-.38-1-.78-1.92-1.14-2.89-.27-.76-.25-.72-1.06-.75A1.32,1.32,0,0,0,40,67,27.46,27.46,0,0,1,38.32,69.93ZM13.76,35.31a5.73,5.73,0,0,0-.22-.93c-.29-.69-.76-.82-1.4-.44a2.69,2.69,0,0,0-1.2,2.86,1.08,1.08,0,0,0,1.82.65A2.8,2.8,0,0,0,13.76,35.31Zm3-.26.84-.18c1-.24,1.93-.46,2.89-.73a.89.89,0,0,0,.71-1c-.11-.42-.49-.6-1.1-.48-.44.09-.89.21-1.33.33l-2.41.66Z"/><path class="cls-1" d="M46.53,19.82a7.89,7.89,0,0,1,.29-1.09,11.62,11.62,0,0,1,3-4.65,2.5,2.5,0,0,1,1.13-.58A1.16,1.16,0,0,1,52.38,15a7.2,7.2,0,0,1-.61,1.62,15.62,15.62,0,0,1-2.55,3.68,4.59,4.59,0,0,1-.93.77C47.35,21.58,46.54,21.11,46.53,19.82Z"/><path class="cls-1" d="M31.1,35.41a1.5,1.5,0,0,1-1.69.1,1.31,1.31,0,0,1-.63-1.23c0-.27.13-.55.41-.57s.4.14.59.24a.86.86,0,0,1,.19.22,1.38,1.38,0,0,0,.66-1c0-.07-.1-.2-.18-.27a2,2,0,0,1-.81-1.27,1,1,0,0,1,.85-1.22,4.78,4.78,0,0,1,3,.47.93.93,0,0,1,.18,1.63,3.88,3.88,0,0,1-1.1.59c-.25.1-.35.23-.32.47a3.94,3.94,0,0,0,.08.6c.1.4.25.46.59.23a.56.56,0,0,1,.74,0,.62.62,0,0,1,.1.81,1.53,1.53,0,0,1-2.25.55Z"/><path class="cls-1" d="M41.68,30.74a4.83,4.83,0,0,1-1.06,2.82,2,2,0,0,1-1.79.85,1.64,1.64,0,0,1-1.48-1.65,4.69,4.69,0,0,1,1.19-3.5A1.82,1.82,0,0,1,40,28.59C41.09,28.6,41.75,29.46,41.68,30.74Z"/><path class="cls-1" d="M34.4,16.43a10.94,10.94,0,0,1,.92-4.11,3.12,3.12,0,0,1,.52-.81.94.94,0,0,1,1-.31.86.86,0,0,1,.67.78,13.66,13.66,0,0,1-.08,2.48,24.77,24.77,0,0,1-.81,3,2.29,2.29,0,0,1-.5.81.83.83,0,0,1-1.41-.2,10.05,10.05,0,0,1-.4-1.66Z"/><path class="cls-1" d="M23.71,30.58a5.36,5.36,0,0,1,1.11-3.23A1.9,1.9,0,0,1,25.2,27a1.54,1.54,0,0,1,1.59-.28A1.33,1.33,0,0,1,27.57,28a4.72,4.72,0,0,1-1.22,3.42c-.69.78-1.68.87-2.2.18A3.93,3.93,0,0,1,23.71,30.58Z"/><path class="cls-1" d="M18.45,43.75c.73.26,1.44.49,2.13.79a1.47,1.47,0,0,1,.88,1.14,1.31,1.31,0,0,1-1.72,1.46c-.49-.14-1-.35-1.49-.55,0,.2-.06.34-.07.49-.06,1-.11,1.91-.19,2.86,0,.34.11.45.39.58a12.19,12.19,0,0,1,2.22,1.13,4.15,4.15,0,0,1-1,7.12,9.52,9.52,0,0,1-1.66.47c-.35.06-.45.2-.45.52a6.12,6.12,0,0,1-.08,1,1.48,1.48,0,0,1-2,1.12,1.21,1.21,0,0,1-.82-1.18c0-.49,0-1,0-1.49a8.13,8.13,0,0,1-1.07-.33A9.78,9.78,0,0,1,11.88,58a2,2,0,0,1-.65-.94,1.29,1.29,0,0,1,1.68-1.63c.34.12.66.3,1,.45s.62.24,1,.39c.06-.81.12-1.56.17-2.31,0-.44.2-1,0-1.3s-.73-.39-1.1-.59A4,4,0,0,1,11.6,48,4.43,4.43,0,0,1,15,44c.63-.19.63-.19.68-.84,0-.26,0-.51.09-.77a1.29,1.29,0,0,1,1.42-1.14,1.34,1.34,0,0,1,1.31,1.33C18.46,43,18.45,43.4,18.45,43.75Zm-.82,12.51A1.4,1.4,0,0,0,19,55a1.44,1.44,0,0,0-1.21-1.38Zm-2.08-9.39a1.5,1.5,0,0,0-.93,1.32,1.37,1.37,0,0,0,.79,1.25Z"/></g></g></svg>