<svg width="140" height="74" viewBox="0 0 140 74" fill="none" xmlns="http://www.w3.org/2000/svg">
<g clip-path="url(#clip0_443_2015)">
<path d="M22.56 23.19C24.0405 21.3174 25.8927 19.7716 28 18.65C28.2803 18.487 28.5749 18.3498 28.88 18.24C29.27 18.12 29.33 17.85 29.37 17.51C29.5 16.44 29.6 15.36 29.8 14.3C30.4149 10.4916 31.8478 6.8616 34 3.66C34.7563 2.48782 35.7857 1.51669 37 0.830002C37.5703 0.492344 38.2119 0.29342 38.8732 0.249266C39.5345 0.205113 40.1969 0.316966 40.8071 0.575808C41.4172 0.83465 41.958 1.23324 42.3858 1.73943C42.8136 2.24563 43.1164 2.84527 43.27 3.49C43.752 5.22686 43.8779 7.04326 43.64 8.83C43.3911 11.3807 42.9295 13.9062 42.26 16.38C42.2477 16.4013 42.2412 16.4254 42.2412 16.45C42.2412 16.4746 42.2477 16.4987 42.26 16.52L42.41 16.23C44.0767 12.5688 46.476 9.28792 49.46 6.59C51.0793 5.10229 53.0746 4.08563 55.23 3.65C56.1234 3.40584 57.0697 3.43648 57.9456 3.73793C58.8214 4.03938 59.5861 4.59765 60.14 5.34C60.9397 6.50921 61.2518 7.94425 61.01 9.34C60.5555 12.1012 59.5743 14.7493 58.12 17.14C56.9642 19.3033 55.626 21.3641 54.12 23.3C54.0181 23.4122 53.9616 23.5584 53.9616 23.71C53.9616 23.8616 54.0181 24.0078 54.12 24.12C55.7722 26.7844 56.6291 29.8652 56.59 33C56.5855 35.9711 55.6826 38.8713 54 41.32C53.9132 41.4296 53.866 41.5652 53.866 41.705C53.866 41.8448 53.9132 41.9804 54 42.09C55.5075 44.6927 56.5244 47.5501 57 50.52C57.0305 50.6108 57.0506 50.7047 57.06 50.8C57.06 51.13 57.21 51.23 57.55 51.24C58.9932 51.2894 60.3701 51.8575 61.4282 52.8403C62.4862 53.823 63.1544 55.1544 63.31 56.59C63.5079 57.8501 63.4016 59.1393 63 60.35C62.6465 61.486 61.981 62.4999 61.0793 63.2761C60.1776 64.0523 59.076 64.5595 57.9 64.74C57.46 64.83 57.38 65.03 57.32 65.39C57.164 66.6807 56.8274 67.943 56.32 69.14C56.16 69.48 55.95 69.79 55.74 70.14L56.69 70.23C57.87 70.35 59.05 70.45 60.23 70.58C60.5406 70.6017 60.8435 70.6868 61.12 70.83C61.3367 70.9702 61.4907 71.1888 61.55 71.44C61.61 71.75 61.36 71.97 61.05 72.03C60.2872 72.1971 59.5161 72.324 58.74 72.41C52.08 72.95 45.41 73.2 38.74 73.21C34.97 73.21 31.21 73.28 27.44 73.21C22.68 73.11 17.92 72.92 13.17 72.72C11.77 72.66 10.38 72.44 8.98997 72.27C8.7359 72.2294 8.48752 72.1589 8.24997 72.06C8.11173 72.0225 7.98974 71.9405 7.90294 71.8266C7.81614 71.7126 7.7694 71.5732 7.76997 71.43C7.75988 71.2794 7.8051 71.1302 7.89716 71.0105C7.98922 70.8909 8.12178 70.8089 8.26997 70.78C8.86506 70.6096 9.47413 70.4925 10.09 70.43C13.3 70.27 16.5 70.11 19.71 70.01C22.4 69.92 25.08 69.9 27.77 69.85H28.2C27.94 69.35 27.7 68.85 27.43 68.41C27.43 68.35 27.19 68.41 27.08 68.41C25.61 68.69 24.15 69.09 22.67 69.26C17.9886 69.974 13.2006 69.3104 8.88997 67.35C7.14629 66.5839 5.57152 65.4801 4.25647 64.1024C2.94143 62.7247 1.91213 61.1003 1.22792 59.3228C0.543722 57.5454 0.218154 55.6501 0.269995 53.7462C0.321836 51.8423 0.75006 49.9676 1.52997 48.23C3.02942 44.7142 5.33483 41.6003 8.25997 39.14C8.43997 38.99 8.57997 38.88 8.45997 38.61C7.92419 37.2202 7.94661 35.6771 8.52253 34.3035C9.09845 32.9298 10.1832 31.8321 11.55 31.24C11.61 31.24 11.66 31.18 11.78 31.12C11.32 30.75 10.88 30.43 10.47 30.07C10.0399 29.7015 9.63559 29.3039 9.25997 28.88C7.25997 26.53 8.79997 24.16 10.73 23.46C11.4306 23.2073 12.1759 23.1018 12.9191 23.15C13.6624 23.1981 14.3878 23.399 15.05 23.74C16.11 24.24 16.11 24.23 16.95 23.4C17.4088 22.8927 17.9853 22.506 18.6288 22.2741C19.2723 22.0421 19.963 21.972 20.64 22.07C21.3998 22.1837 22.087 22.5846 22.56 23.19ZM22.56 35.02C22.68 35.11 22.8 35.21 22.94 35.3C24.26 36.16 25.59 37 26.94 37.88C29.924 39.7407 32.5407 42.1337 34.66 44.94C34.7129 44.9938 34.7772 45.0351 34.8481 45.0611C34.919 45.087 34.9948 45.0969 35.07 45.09C36.34 44.84 37.6 44.54 38.88 44.32C39.7595 44.1603 40.6477 44.0535 41.54 44C41.8199 43.9882 42.0952 44.0747 42.318 44.2446C42.5408 44.4145 42.6972 44.6569 42.76 44.93C42.7956 45.1941 42.746 45.4626 42.6183 45.6965C42.4905 45.9304 42.2914 46.1173 42.05 46.23C41.7764 46.3741 41.4881 46.4881 41.19 46.57C39.41 47.02 37.64 47.46 35.85 47.88C34.0894 48.2144 32.3599 48.6961 30.68 49.32C30.0246 49.5661 29.4453 49.9799 29 50.52C28.8562 50.6698 28.7453 50.848 28.6744 51.0431C28.6035 51.2382 28.5742 51.446 28.5883 51.6532C28.6025 51.8603 28.6597 52.0622 28.7564 52.2459C28.8532 52.4296 28.9872 52.5911 29.15 52.72C29.4239 52.9587 29.7303 53.1574 30.06 53.31C30.9909 53.7136 31.9866 53.9473 33 54C36.5402 54.2421 40.0893 53.678 43.38 52.35C43.93 52.14 44.47 51.87 45.03 51.7C45.204 51.6372 45.3898 51.6141 45.5739 51.6324C45.758 51.6507 45.9357 51.7099 46.0939 51.8058C46.2521 51.9017 46.3868 52.0318 46.4882 52.1865C46.5897 52.3412 46.6552 52.5167 46.68 52.7C46.7232 52.9712 46.6833 53.2492 46.5655 53.4973C46.4476 53.7454 46.2575 53.9521 46.02 54.09C45.1576 54.6136 44.2624 55.0812 43.34 55.49C41.5946 56.1813 39.7654 56.6386 37.9 56.85C37.62 56.85 37.55 57.01 37.52 57.25C37.3009 58.7633 36.7916 60.22 36.02 61.54C35.72 62.06 35.37 62.54 35.02 63.07C35.0544 63.0938 35.0913 63.1139 35.13 63.13C35.2097 63.1396 35.2903 63.1396 35.37 63.13C38.1774 63.4066 41.0079 63.3428 43.8 62.94C44.61 62.82 44.9 62.94 45.07 63.78C45.3597 65.238 45.8265 66.6552 46.46 68C46.7213 68.6106 47.1608 69.1282 47.721 69.4851C48.2812 69.8419 48.9361 70.0214 49.6 70C49.9331 70.0181 50.2669 70.0181 50.6 70C51.2723 69.9904 51.9244 69.7687 52.4632 69.3664C53.0019 68.9641 53.3998 68.4019 53.6 67.76C53.8591 67.0087 54.0498 66.2356 54.17 65.45C54.8353 60.9908 54.8286 56.4572 54.15 52C53.8341 49.6959 53.1874 47.4494 52.23 45.33C51.722 44.3216 51.1509 43.3464 50.52 42.41C50.16 41.83 50.12 41.66 50.52 41.11C50.571 41.0325 50.6278 40.9589 50.69 40.89C52.2141 39.0597 53.173 36.8256 53.45 34.46C53.9162 30.8241 52.9199 27.1517 50.68 24.25C50.5816 24.1566 50.5033 24.0441 50.4498 23.9195C50.3963 23.7949 50.3687 23.6606 50.3687 23.525C50.3687 23.3894 50.3963 23.2551 50.4498 23.1305C50.5033 23.0059 50.5816 22.8934 50.68 22.8C51.33 21.92 52.02 21.07 52.68 20.18C54.6799 17.474 56.2922 14.502 57.47 11.35C57.9212 10.3344 58.1399 9.2309 58.11 8.12C58.1099 7.8601 58.0517 7.60351 57.9395 7.36908C57.8273 7.13464 57.664 6.92832 57.4616 6.76526C57.2593 6.60221 57.0229 6.48656 56.77 6.42681C56.517 6.36706 56.2539 6.36474 56 6.42C54.6608 6.5997 53.3975 7.14656 52.35 8C49.7682 9.95426 47.6282 12.4316 46.07 15.27C45.38 16.45 44.81 17.71 44.19 18.94C44.1548 19.0573 44.0944 19.1655 44.0129 19.257C43.9315 19.3485 43.8311 19.4211 43.7187 19.4696C43.6063 19.5182 43.4846 19.5416 43.3621 19.5383C43.2397 19.5349 43.1195 19.5047 43.01 19.45C42.77 19.38 42.55 19.29 42.31 19.24C41.45 19.07 40.59 18.9 39.73 18.76C39.12 18.66 38.91 18.42 38.95 17.76C38.9602 17.6386 38.9803 17.5182 39.01 17.4C39.42 15.6 39.85 13.8 40.23 12C40.7241 9.96225 40.9261 7.86461 40.83 5.77C40.8203 5.02458 40.6096 4.29559 40.22 3.66C40.0856 3.43012 39.8808 3.24959 39.6359 3.14514C39.3909 3.04068 39.1189 3.01784 38.86 3.08C38.1353 3.22578 37.4964 3.6493 37.08 4.26C36.327 5.235 35.6579 6.27204 35.08 7.36C33.2939 10.9474 32.3435 14.8928 32.3 18.9C32.3144 19.0954 32.2633 19.29 32.1546 19.4531C32.0459 19.6161 31.8859 19.7382 31.7 19.8C27.79 21.3834 24.5567 24.2841 22.56 28C22.09 28.86 21.69 29.76 21.27 30.62C23.08 32 23.26 32.67 22.53 35L22.56 35.02ZM34.68 57C33.92 57 33.21 56.93 32.5 56.87C30.7223 56.7897 28.9975 56.2412 27.5 55.28C26.6185 54.7318 25.9751 53.8725 25.6973 52.8724C25.4195 51.8723 25.5275 50.8043 26 49.88C26.5831 48.677 27.5607 47.71 28.77 47.14C29.69 46.67 30.66 46.3 31.68 45.87C31.23 45.36 30.78 44.87 30.29 44.33C28.4077 42.4899 26.3552 40.8325 24.16 39.38C22.7306 38.4581 21.3913 37.4034 20.16 36.23C20.1008 36.1846 20.0332 36.1515 19.9611 36.1326C19.8889 36.1138 19.8138 36.1095 19.74 36.12C19.37 36.19 19.02 36.33 18.66 36.41C18.03 36.54 17.38 36.62 16.75 36.76C16.5844 36.8256 16.449 36.9503 16.37 37.11C16.16 37.52 16.02 37.96 15.79 38.35C15.3138 39.2452 14.5485 39.9529 13.6188 40.3578C12.6892 40.7628 11.6498 40.8411 10.67 40.58C10.6025 40.5709 10.5338 40.576 10.4684 40.5949C10.403 40.6139 10.3422 40.6463 10.29 40.69C7.57723 43.0789 5.44922 46.0588 4.06997 49.4C3.19222 51.4508 2.92822 53.7122 3.30997 55.91C4.17997 60.4 6.93997 63.36 11.1 65.08C13.1775 65.8821 15.3744 66.3316 17.6 66.41C20.9598 66.6576 24.3343 66.2047 27.51 65.08C30.178 64.1826 32.4005 62.2965 33.72 59.81C34.2041 58.9377 34.5292 57.9862 34.68 57ZM12.51 25.84V25.92C12.3385 25.9361 12.1682 25.9628 12 26C11.8568 26.0163 11.7213 26.0735 11.6097 26.1647C11.4982 26.256 11.4153 26.3775 11.371 26.5146C11.3267 26.6518 11.3228 26.7988 11.3599 26.9381C11.3969 27.0774 11.4734 27.203 11.58 27.3C11.6278 27.3678 11.6813 27.4313 11.74 27.49C13.0805 28.7839 14.3051 30.1926 15.4 31.7C15.433 31.7455 15.4767 31.7821 15.5273 31.8065C15.578 31.8309 15.6338 31.8425 15.69 31.84C16.58 31.63 17.47 31.42 18.36 31.18C18.4326 31.1447 18.497 31.0943 18.5487 31.0323C18.6004 30.9702 18.6383 30.8978 18.66 30.82C18.8768 29.6249 19.2535 28.4645 19.78 27.37C20.02 26.88 20.28 26.37 20.53 25.93C20.6156 25.8086 20.6616 25.6636 20.6616 25.515C20.6616 25.3664 20.6156 25.2214 20.53 25.1C20.4413 24.9867 20.316 24.9078 20.1755 24.8768C20.035 24.8458 19.8881 24.8646 19.76 24.93C19.3997 25.0726 19.0626 25.2681 18.76 25.51C18.4848 25.7685 18.2244 26.0423 17.98 26.33C17.7372 26.6138 17.4264 26.8315 17.0766 26.9627C16.7268 27.0938 16.3496 27.1342 15.98 27.08C15.3301 26.9195 14.6946 26.7054 14.08 26.44C13.55 26.26 13 26 12.51 25.84ZM57.51 61.94H57.72C58.4868 61.7539 59.1689 61.3156 59.6567 60.6954C60.1445 60.0752 60.4098 59.3091 60.41 58.52C60.41 58.02 60.41 57.52 60.41 57.02C60.4475 56.5186 60.3437 56.0167 60.1103 55.5712C59.877 55.1258 59.5235 54.7547 59.09 54.5C58.6309 54.1746 58.07 54.0255 57.51 54.08V61.94ZM38.28 69.94H43.7C43.7 69.85 43.64 69.78 43.62 69.7C43.24 68.7 42.84 67.78 42.48 66.81C42.21 66.05 42.23 66.09 41.42 66.06C41.1104 66.0238 40.798 66.0984 40.5381 66.2704C40.2782 66.4424 40.0876 66.7009 40 67C39.5006 68.0102 38.9396 68.9887 38.32 69.93L38.28 69.94ZM13.76 35.31C13.7127 34.9944 13.6391 34.6833 13.54 34.38C13.25 33.69 12.78 33.56 12.14 33.94C11.6692 34.2345 11.3011 34.6676 11.0863 35.1796C10.8714 35.6917 10.8203 36.2577 10.94 36.8C10.964 36.9992 11.0431 37.1879 11.1683 37.3447C11.2935 37.5015 11.46 37.6203 11.649 37.6878C11.838 37.7553 12.042 37.7688 12.2383 37.7268C12.4345 37.6848 12.6152 37.589 12.76 37.45C13.0725 37.1877 13.3239 36.8603 13.4967 36.4906C13.6694 36.121 13.7593 35.718 13.76 35.31ZM16.76 35.05L17.6 34.87C18.6 34.63 19.53 34.41 20.49 34.14C20.714 34.0962 20.9126 33.9679 21.0447 33.7818C21.1769 33.5957 21.2324 33.3659 21.2 33.14C21.09 32.72 20.71 32.54 20.1 32.66C19.66 32.75 19.21 32.87 18.77 32.99L16.36 33.65L16.76 35.05Z" fill="white" stroke="white" stroke-width="0.5" stroke-miterlimit="10"/>
<path d="M46.53 19.82C46.6005 19.4503 46.6974 19.086 46.82 18.73C47.4309 16.9611 48.4601 15.3658 49.82 14.08C50.1404 13.7927 50.5297 13.5929 50.95 13.5C51.1556 13.4375 51.3745 13.4333 51.5824 13.4879C51.7903 13.5425 51.9789 13.6539 52.1272 13.8094C52.2755 13.965 52.3776 14.1587 52.4223 14.3689C52.4669 14.5791 52.4523 14.7976 52.38 15C52.2425 15.5626 52.0377 16.1065 51.77 16.62C51.1011 17.9628 50.2423 19.2022 49.22 20.3C48.9452 20.5965 48.6325 20.8554 48.29 21.07C47.35 21.58 46.54 21.11 46.53 19.82Z" fill="white" stroke="white" stroke-width="0.5" stroke-miterlimit="10"/>
<path d="M31.0999 35.4099C30.8611 35.5948 30.5719 35.7033 30.2704 35.7211C29.9689 35.739 29.669 35.6654 29.4099 35.5099C29.2007 35.384 29.0309 35.2021 28.9196 34.9848C28.8082 34.7674 28.7599 34.5233 28.7799 34.2799C28.7799 34.0099 28.9099 33.7299 29.1899 33.7099C29.4699 33.6899 29.5899 33.8499 29.7799 33.9499C29.8553 34.012 29.9196 34.0864 29.9699 34.1699C30.148 34.0636 30.2999 33.9184 30.4141 33.7453C30.5284 33.5722 30.6022 33.3755 30.6299 33.1699C30.6299 33.0999 30.5299 32.9699 30.4499 32.8999C30.0247 32.5983 29.7341 32.1427 29.6399 31.6299C29.608 31.4934 29.6052 31.3517 29.6316 31.214C29.658 31.0763 29.713 30.9456 29.7932 30.8306C29.8733 30.7156 29.9768 30.6187 30.0968 30.5462C30.2169 30.4737 30.3508 30.4273 30.4899 30.4099C31.5144 30.2364 32.5676 30.4014 33.4899 30.8799C33.6462 30.9426 33.7825 31.0465 33.8843 31.1805C33.9861 31.3146 34.0497 31.4737 34.0681 31.641C34.0866 31.8083 34.0593 31.9775 33.9892 32.1306C33.9191 32.2836 33.8087 32.4147 33.6699 32.5099C33.3375 32.7647 32.966 32.9639 32.5699 33.0999C32.3199 33.1999 32.2199 33.3299 32.2499 33.5699C32.2612 33.7717 32.2879 33.9723 32.3299 34.1699C32.4299 34.5699 32.5799 34.6299 32.9199 34.3999C33.0222 34.3099 33.1537 34.2603 33.2899 34.2603C33.4262 34.2603 33.5577 34.3099 33.6599 34.3999C33.7718 34.5 33.8436 34.6372 33.862 34.7862C33.8804 34.9351 33.8441 35.0857 33.7599 35.2099C33.6599 35.4057 33.5189 35.5775 33.3465 35.7139C33.1741 35.8502 32.9743 35.9478 32.7608 36C32.5473 36.0521 32.3251 36.0577 32.1092 36.0163C31.8934 35.9749 31.689 35.8874 31.5099 35.7599L31.0999 35.4099Z" fill="white" stroke="white" stroke-width="0.5" stroke-miterlimit="10"/>
<path d="M41.68 30.74C41.6363 31.769 41.2649 32.7571 40.62 33.56C40.4211 33.845 40.1515 34.0732 39.8376 34.2223C39.5238 34.3713 39.1765 34.436 38.83 34.41C38.4216 34.37 38.043 34.1783 37.769 33.8729C37.495 33.5674 37.3455 33.1703 37.35 32.76C37.3009 32.1264 37.381 31.4895 37.5856 30.8878C37.7901 30.2862 38.1148 29.7324 38.54 29.26C38.7158 29.0441 38.9389 28.8714 39.192 28.7552C39.4452 28.6391 39.7216 28.5825 40 28.59C41.09 28.6 41.75 29.46 41.68 30.74Z" fill="white" stroke="white" stroke-width="0.5" stroke-miterlimit="10"/>
<path d="M34.4 16.43C34.4376 15.0134 34.75 13.6175 35.32 12.32C35.4504 12.0248 35.6258 11.7515 35.84 11.51C35.9572 11.365 36.1148 11.2581 36.2928 11.2029C36.4709 11.1477 36.6614 11.1467 36.84 11.2C37.0208 11.2405 37.1837 11.3383 37.3044 11.4789C37.4251 11.6194 37.4972 11.7952 37.51 11.98C37.5586 12.8074 37.5318 13.6375 37.43 14.46C37.2231 15.476 36.9525 16.478 36.62 17.46C36.5119 17.7621 36.3416 18.038 36.12 18.27C36.0297 18.3815 35.9121 18.4677 35.7786 18.5202C35.6452 18.5727 35.5003 18.5897 35.3583 18.5696C35.2163 18.5494 35.0819 18.4928 34.9683 18.4053C34.8547 18.3177 34.7657 18.2022 34.71 18.07C34.5298 17.529 34.396 16.9737 34.31 16.41L34.4 16.43Z" fill="white" stroke="white" stroke-width="0.5" stroke-miterlimit="10"/>
<path d="M23.71 30.58C23.7179 29.4111 24.1077 28.2768 24.82 27.35C24.9301 27.2165 25.058 27.0988 25.2 27C25.4131 26.8107 25.6746 26.6843 25.9553 26.6349C26.236 26.5855 26.525 26.6149 26.79 26.72C27.0336 26.8302 27.2383 27.0113 27.3775 27.2396C27.5166 27.468 27.5837 27.7329 27.57 28C27.6025 28.6223 27.5114 29.245 27.302 29.832C27.0926 30.419 26.769 30.9587 26.35 31.42C25.66 32.2 24.67 32.29 24.15 31.6C23.9557 31.2825 23.8076 30.9391 23.71 30.58Z" fill="white" stroke="white" stroke-width="0.5" stroke-miterlimit="10"/>
<path d="M18.45 43.75C19.18 44.01 19.89 44.24 20.58 44.54C20.8121 44.6385 21.015 44.7952 21.1691 44.9948C21.3233 45.1945 21.4234 45.4304 21.46 45.68C21.4986 45.9044 21.4781 46.1351 21.4003 46.3492C21.3226 46.5633 21.1904 46.7535 21.0167 46.9009C20.843 47.0483 20.6339 47.1479 20.41 47.1898C20.1862 47.2317 19.9552 47.2145 19.74 47.14C19.25 47 18.74 46.79 18.25 46.59C18.25 46.79 18.19 46.93 18.18 47.08C18.12 48.08 18.07 48.9899 17.99 49.9399C17.99 50.2799 18.1 50.39 18.38 50.52C19.1566 50.8198 19.9005 51.1985 20.6 51.65C21.1745 52.0983 21.6208 52.6901 21.8941 53.3657C22.1673 54.0414 22.2578 54.7771 22.1564 55.4988C22.055 56.2205 21.7654 56.9028 21.3166 57.477C20.8679 58.0513 20.2758 58.4972 19.6 58.77C19.062 58.9765 18.5064 59.1339 17.94 59.24C17.59 59.3 17.49 59.4399 17.49 59.7599C17.4907 60.0949 17.464 60.4294 17.41 60.7599C17.3719 60.976 17.2862 61.1809 17.1592 61.3598C17.0322 61.5387 16.867 61.6871 16.6756 61.7943C16.4842 61.9015 16.2713 61.9648 16.0524 61.9796C15.8335 61.9944 15.6141 61.9604 15.41 61.88C15.1651 61.7967 14.9534 61.6372 14.8058 61.4249C14.6583 61.2125 14.5826 60.9584 14.59 60.7C14.59 60.21 14.59 59.6999 14.59 59.2099C14.2261 59.1247 13.8686 59.0144 13.52 58.88C12.9466 58.6394 12.3974 58.3448 11.88 58C11.5765 57.7565 11.3506 57.4298 11.23 57.06C11.1488 56.8277 11.1357 56.577 11.1923 56.3375C11.2489 56.0981 11.3728 55.8798 11.5494 55.7084C11.726 55.5371 11.948 55.4198 12.189 55.3705C12.4301 55.3211 12.6802 55.3418 12.91 55.43C13.25 55.55 13.57 55.73 13.91 55.88C14.25 56.03 14.53 56.12 14.91 56.27C14.97 55.46 15.03 54.7099 15.08 53.9599C15.08 53.5199 15.28 52.96 15.08 52.66C14.88 52.36 14.35 52.27 13.98 52.07C13.2033 51.7311 12.5543 51.1544 12.1266 50.4229C11.6988 49.6914 11.5144 48.843 11.6 48C11.6663 47.0579 12.032 46.1617 12.6436 45.4421C13.2553 44.7225 14.0809 44.2172 15 44C15.63 43.81 15.63 43.81 15.68 43.16C15.68 42.9 15.68 42.65 15.77 42.39C15.8077 42.0507 15.9783 41.7403 16.2445 41.5266C16.5106 41.3129 16.8506 41.2135 17.19 41.25C17.5384 41.2577 17.8701 41.401 18.1147 41.6493C18.3592 41.8976 18.4975 42.2314 18.5 42.58C18.46 43 18.45 43.4 18.45 43.75ZM17.63 56.2599C17.9731 56.2543 18.3021 56.1229 18.5547 55.8906C18.8072 55.6583 18.9657 55.3414 19 55C18.9903 54.6651 18.8642 54.3441 18.6433 54.0922C18.4225 53.8403 18.1207 53.6733 17.79 53.6199L17.63 56.2599ZM15.55 46.8699C15.2852 46.9784 15.057 47.1603 14.8922 47.3941C14.7274 47.628 14.633 47.9041 14.62 48.1899C14.6183 48.452 14.6918 48.7091 14.8318 48.9307C14.9719 49.1522 15.1725 49.329 15.41 49.4399L15.55 46.8699Z" fill="white" stroke="white" stroke-width="0.5" stroke-miterlimit="10"/>
<path d="M87.74 12.24C87.912 12.2203 88.0862 12.24 88.2494 12.2977C88.4126 12.3554 88.5605 12.4495 88.682 12.5728C88.8034 12.6962 88.8952 12.8456 88.9503 13.0097C89.0054 13.1738 89.0224 13.3483 89 13.52V36.52C89 36.8647 88.863 37.1954 88.6192 37.4392C88.3754 37.683 88.0448 37.82 87.7 37.82C87.3552 37.82 87.0245 37.683 86.7807 37.4392C86.537 37.1954 86.4 36.8647 86.4 36.52V17.72L81.11 25.52C80.9919 25.7376 80.8211 25.9221 80.6132 26.0567C80.4053 26.1912 80.1669 26.2714 79.92 26.29C79.6683 26.2745 79.4246 26.1958 79.2113 26.0613C78.9981 25.9267 78.8222 25.7405 78.7 25.52L73.43 17.72V36.51C73.43 36.8547 73.293 37.1854 73.0492 37.4292C72.8054 37.673 72.4748 37.81 72.13 37.81C71.7852 37.81 71.4545 37.673 71.2107 37.4292C70.967 37.1854 70.83 36.8547 70.83 36.51V13.51C70.8063 13.3345 70.8237 13.156 70.881 12.9884C70.9382 12.8209 71.0337 12.669 71.1599 12.5448C71.286 12.4206 71.4394 12.3275 71.6078 12.2729C71.7761 12.2182 71.9549 12.2035 72.13 12.23C72.3592 12.2285 72.5849 12.2867 72.7848 12.3989C72.9847 12.5111 73.1519 12.6735 73.27 12.87L80 22.69L86.68 12.8C86.7949 12.6246 86.9524 12.4813 87.1378 12.3833C87.3232 12.2854 87.5304 12.2361 87.74 12.24Z" fill="white" stroke="white" stroke-width="1.45" stroke-miterlimit="10"/>
<path d="M109.84 30.12C109.768 32.105 108.929 33.9847 107.5 35.3637C106.07 36.7426 104.161 37.5131 102.175 37.5131C100.189 37.5131 98.2799 36.7426 96.8503 35.3637C95.4206 33.9847 94.5817 32.105 94.51 30.12V19.9C94.4728 18.8702 94.6435 17.8433 95.0119 16.8809C95.3804 15.9185 95.939 15.0402 96.6544 14.2984C97.3699 13.5567 98.2274 12.9667 99.1759 12.5638C100.124 12.1608 101.144 11.9531 102.175 11.9531C103.206 11.9531 104.226 12.1608 105.174 12.5638C106.123 12.9667 106.98 13.5567 107.696 14.2984C108.411 15.0402 108.97 15.9185 109.338 16.8809C109.706 17.8433 109.877 18.8702 109.84 19.9V30.12ZM107.29 30.12V19.9C107.29 18.5448 106.752 17.245 105.793 16.2867C104.835 15.3284 103.535 14.79 102.18 14.79C100.825 14.79 99.525 15.3284 98.5667 16.2867C97.6083 17.245 97.07 18.5448 97.07 19.9V30.12C97.07 31.4753 97.6083 32.775 98.5667 33.7333C99.525 34.6917 100.825 35.23 102.18 35.23C103.535 35.23 104.835 34.6917 105.793 33.7333C106.752 32.775 107.29 31.4753 107.29 30.12Z" fill="white" stroke="white" stroke-width="1.44" stroke-miterlimit="10"/>
<path d="M128.37 31.57V13.57C128.37 13.2305 128.505 12.905 128.745 12.6649C128.985 12.4249 129.31 12.29 129.65 12.29C129.989 12.29 130.315 12.4249 130.555 12.6649C130.795 12.905 130.93 13.2305 130.93 13.57V36.57C130.955 36.7439 130.939 36.9213 130.884 37.0881C130.828 37.2548 130.735 37.4064 130.611 37.5306C130.486 37.6549 130.335 37.7485 130.168 37.8039C130.001 37.8594 129.824 37.8751 129.65 37.85C129.422 37.8623 129.194 37.8084 128.996 37.6949C128.797 37.5814 128.635 37.4131 128.53 37.21L118.16 18.43V36.51C118.16 36.8495 118.025 37.1751 117.785 37.4151C117.545 37.6551 117.219 37.79 116.88 37.79C116.54 37.79 116.215 37.6551 115.975 37.4151C115.735 37.1751 115.6 36.8495 115.6 36.51V13.51C115.575 13.3361 115.591 13.1587 115.646 12.9919C115.701 12.8252 115.795 12.6736 115.919 12.5494C116.044 12.4251 116.195 12.3315 116.362 12.2761C116.529 12.2206 116.706 12.2049 116.88 12.23C117.129 12.2305 117.372 12.3024 117.581 12.4371C117.791 12.5718 117.957 12.7637 118.06 12.99L128.37 31.57Z" fill="white" stroke="white" stroke-width="1.44" stroke-miterlimit="10"/>
<path d="M137.71 37.79C137.536 37.8151 137.359 37.7993 137.192 37.7439C137.025 37.6885 136.874 37.5949 136.749 37.4706C136.625 37.3464 136.531 37.1948 136.476 37.0281C136.421 36.8613 136.405 36.6839 136.43 36.51V13.51C136.43 13.1705 136.565 12.8449 136.805 12.6049C137.045 12.3648 137.37 12.23 137.71 12.23C138.049 12.23 138.375 12.3648 138.615 12.6049C138.855 12.8449 138.99 13.1705 138.99 13.51V36.51C139.015 36.6839 138.999 36.8613 138.944 37.0281C138.888 37.1948 138.795 37.3464 138.671 37.4706C138.546 37.5949 138.395 37.6885 138.228 37.7439C138.061 37.7993 137.884 37.8151 137.71 37.79Z" fill="white" stroke="white" stroke-width="1.44" stroke-miterlimit="10"/>
<path d="M85.51 55.08C88.46 56.52 89.94 58.7 89.94 61.6C89.9322 62.6507 89.6807 63.6853 89.2053 64.6224C88.7298 65.5594 88.0434 66.3733 87.2 67C85.3359 68.5069 82.9962 69.301 80.6 69.24H72.83C71.83 69.24 71.27 68.82 71.27 67.96V45C71.27 44.15 71.79 43.73 72.83 43.73H80.6C82.6053 43.6648 84.5675 44.3212 86.13 45.58C86.8312 46.1084 87.3996 46.7928 87.7902 47.5792C88.1807 48.3655 88.3827 49.232 88.38 50.11C88.3748 51.1164 88.1074 52.1041 87.6041 52.9756C87.1008 53.8472 86.379 54.5725 85.51 55.08ZM73.84 46.27V53.93H80.72C82.0268 53.9693 83.31 53.5755 84.37 52.81C84.8309 52.5238 85.2113 52.1247 85.475 51.6505C85.7387 51.1763 85.8771 50.6426 85.8771 50.1C85.8771 49.5574 85.7387 49.0238 85.475 48.5496C85.2113 48.0754 84.8309 47.6763 84.37 47.39C83.3077 46.6292 82.0261 46.236 80.72 46.27H73.84ZM73.84 56.49V66.71H80.65C82.382 66.7616 84.0829 66.2415 85.49 65.23C86.0968 64.8385 86.5958 64.3011 86.9413 63.667C87.2868 63.0328 87.4678 62.3222 87.4678 61.6C87.4678 60.8779 87.2868 60.1672 86.9413 59.5331C86.5958 58.8989 86.0968 58.3615 85.49 57.97C84.085 56.9545 82.3827 56.434 80.65 56.49H73.84Z" fill="white" stroke="white" stroke-width="1.59" stroke-miterlimit="10"/>
<path d="M110.12 45V61.6C110.048 63.5849 109.209 65.4647 107.78 66.8436C106.35 68.2225 104.441 68.9931 102.455 68.9931C100.469 68.9931 98.5599 68.2225 97.1303 66.8436C95.7006 65.4647 94.8617 63.5849 94.79 61.6V45C94.79 44.6605 94.9248 44.3349 95.1649 44.0949C95.4049 43.8548 95.7305 43.72 96.07 43.72C96.4095 43.72 96.735 43.8548 96.9751 44.0949C97.2151 44.3349 97.35 44.6605 97.35 45V61.6C97.3195 62.2894 97.4289 62.9778 97.6717 63.6238C97.9145 64.2697 98.2856 64.8598 98.7626 65.3585C99.2397 65.8571 99.8128 66.254 100.447 66.5251C101.082 66.7962 101.765 66.936 102.455 66.936C103.145 66.936 103.828 66.7962 104.463 66.5251C105.097 66.254 105.67 65.8571 106.147 65.3585C106.624 64.8598 106.995 64.2697 107.238 63.6238C107.481 62.9778 107.59 62.2894 107.56 61.6V45C107.56 44.6605 107.695 44.3349 107.935 44.0949C108.175 43.8548 108.5 43.72 108.84 43.72C109.179 43.72 109.505 43.8548 109.745 44.0949C109.985 44.3349 110.12 44.6605 110.12 45Z" fill="white" stroke="white" stroke-width="1.44" stroke-miterlimit="10"/>
<path d="M128.65 63.05V45C128.65 44.6606 128.785 44.335 129.025 44.0949C129.265 43.8549 129.59 43.72 129.93 43.72C130.269 43.72 130.595 43.8549 130.835 44.0949C131.075 44.335 131.21 44.6606 131.21 45V68C131.235 68.174 131.219 68.3514 131.164 68.5181C131.108 68.6849 131.015 68.8364 130.891 68.9607C130.766 69.085 130.615 69.1785 130.448 69.234C130.281 69.2894 130.104 69.3052 129.93 69.28C129.701 69.2949 129.473 69.2421 129.274 69.1283C129.075 69.0145 128.913 68.8447 128.81 68.64L118.43 49.91V68C118.446 68.177 118.424 68.3552 118.367 68.5235C118.31 68.6917 118.219 68.8463 118.099 68.9773C117.979 69.1083 117.833 69.2129 117.671 69.2845C117.508 69.3561 117.333 69.3931 117.155 69.3931C116.977 69.3931 116.802 69.3561 116.639 69.2845C116.477 69.2129 116.331 69.1083 116.211 68.9773C116.091 68.8463 115.999 68.6917 115.943 68.5235C115.886 68.3552 115.864 68.177 115.88 68V45C115.857 44.8269 115.874 44.6506 115.93 44.4852C115.986 44.3197 116.08 44.1695 116.204 44.0465C116.328 43.9234 116.479 43.8308 116.645 43.7759C116.811 43.721 116.987 43.7053 117.16 43.73C117.407 43.732 117.649 43.8034 117.857 43.936C118.066 44.0686 118.233 44.2571 118.34 44.48L128.65 63.05Z" fill="white" stroke="white" stroke-width="1.44" stroke-miterlimit="10"/>
<path d="M138 69.26C137.827 69.2861 137.651 69.2718 137.484 69.2182C137.318 69.1646 137.166 69.0732 137.041 68.9511C136.916 68.8289 136.821 68.6795 136.764 68.5145C136.706 68.3494 136.688 68.1733 136.71 68V45C136.71 44.6605 136.845 44.3349 137.085 44.0949C137.325 43.8548 137.65 43.72 137.99 43.72C138.329 43.72 138.655 43.8548 138.895 44.0949C139.135 44.3349 139.27 44.6605 139.27 45V68C139.291 68.1714 139.273 68.3455 139.217 68.5088C139.16 68.6721 139.067 68.8203 138.945 68.942C138.822 69.0637 138.673 69.1556 138.509 69.2107C138.345 69.2659 138.171 69.2827 138 69.26Z" fill="white" stroke="white" stroke-width="1.44" stroke-miterlimit="10"/>
</g>
<defs>
<clipPath id="clip0_443_2015">
<rect width="139.99" height="73.52" fill="white"/>
</clipPath>
</defs>
</svg>
