<svg xmlns="http://www.w3.org/2000/svg" viewBox="0 0 150.88 107.89"><defs><style>.cls-1,.cls-2,.cls-3,.cls-4{stroke:#000;stroke-miterlimit:10;}.cls-1{stroke-width:0.5px;}.cls-2{stroke-width:1.45px;}.cls-3{stroke-width:1.44px;}.cls-4{stroke-width:1.59px;}</style></defs><title>Asset 5</title><g id="Layer_2" data-name="Layer 2"><g id="Layer_1-2" data-name="Layer 1"><path class="cls-1" d="M66.2,23.19a17.29,17.29,0,0,1,5.47-4.54,5,5,0,0,1,.88-.41c.39-.12.45-.39.49-.73.13-1.07.22-2.15.42-3.21a27,27,0,0,1,4.2-10.64,8.74,8.74,0,0,1,3-2.83A4.23,4.23,0,0,1,86.9,3.49a13.37,13.37,0,0,1,.37,5.34,46,46,0,0,1-1.38,7.55.14.14,0,0,0,0,.14l.15-.29a29.55,29.55,0,0,1,7-9.64A12.14,12.14,0,0,1,98.9,3.65a4.61,4.61,0,0,1,4.91,1.69,5.39,5.39,0,0,1,.86,4,21.63,21.63,0,0,1-2.88,7.8,43.21,43.21,0,0,1-4,6.16.61.61,0,0,0,0,.82,16.46,16.46,0,0,1,2.5,8.92,14.66,14.66,0,0,1-2.57,8.3.63.63,0,0,0,0,.77,24.57,24.57,0,0,1,2.95,8.43,2.33,2.33,0,0,1,.05.28c0,.33.15.43.5.44a6,6,0,0,1,5.76,5.35,8,8,0,0,1-.33,3.76,6.35,6.35,0,0,1-5.09,4.39c-.44.09-.52.29-.58.65a13.53,13.53,0,0,1-1,3.75c-.16.34-.36.65-.58,1l.95.09c1.19.12,2.37.22,3.55.35a2.18,2.18,0,0,1,.88.25,1,1,0,0,1,.44.61.55.55,0,0,1-.5.59,23.16,23.16,0,0,1-2.31.38c-6.66.54-13.33.79-20,.8-3.77,0-7.54.07-11.3,0-4.76-.1-9.52-.29-14.28-.49-1.39-.06-2.78-.28-4.17-.45a3.13,3.13,0,0,1-.74-.21.67.67,0,0,1-.49-.63.63.63,0,0,1,.51-.65,10.26,10.26,0,0,1,1.82-.35c3.2-.16,6.41-.32,9.62-.42,2.68-.09,5.37-.11,8-.16l.43,0c-.26-.5-.49-1-.76-1.44,0-.06-.24,0-.36,0-1.47.28-2.92.68-4.4.85a24.38,24.38,0,0,1-13.77-1.89,14.43,14.43,0,0,1-7.36-19.12,24.26,24.26,0,0,1,6.73-9.09c.17-.15.32-.26.2-.53a5.76,5.76,0,0,1,3.09-7.37l.23-.12c-.46-.37-.9-.69-1.31-1.05a12.37,12.37,0,0,1-1.21-1.19c-2-2.35-.47-4.72,1.47-5.42a5.43,5.43,0,0,1,4.32.28c1.05.5,1.06.49,1.89-.34a4.19,4.19,0,0,1,3.7-1.33A3,3,0,0,1,66.2,23.19Zm0,11.83.38.28c1.33.86,2.66,1.7,4,2.58a28.56,28.56,0,0,1,7.72,7.06.53.53,0,0,0,.42.15c1.27-.25,2.53-.55,3.8-.77A22.75,22.75,0,0,1,85.18,44,1.22,1.22,0,0,1,86.4,45a1.25,1.25,0,0,1-.71,1.3,4.53,4.53,0,0,1-.86.34q-2.67.68-5.34,1.31a31.69,31.69,0,0,0-5.17,1.44,4,4,0,0,0-1.68,1.16,1.49,1.49,0,0,0,.15,2.2,3.47,3.47,0,0,0,.91.59,8.5,8.5,0,0,0,3,.67,23.48,23.48,0,0,0,10.38-1.65c.55-.21,1.08-.48,1.65-.65a1.24,1.24,0,0,1,1.65,1,1.37,1.37,0,0,1-.67,1.39A22,22,0,0,1,87,55.45a21.1,21.1,0,0,1-5.43,1.36c-.28,0-.35.16-.39.4A11.86,11.86,0,0,1,79.7,61.5c-.3.52-.65,1-1,1.53l.12.06a.85.85,0,0,0,.23,0,35,35,0,0,0,8.44-.19c.81-.12,1.09,0,1.26.84A19.28,19.28,0,0,0,90.09,68,3.31,3.31,0,0,0,93.24,70a9.2,9.2,0,0,0,1.05,0,3.18,3.18,0,0,0,3-2.24,12.38,12.38,0,0,0,.57-2.31,44.79,44.79,0,0,0,0-13.43,24.18,24.18,0,0,0-1.92-6.67,28.54,28.54,0,0,0-1.71-2.92c-.36-.58-.4-.75,0-1.3l.18-.22a12.18,12.18,0,0,0,2.75-6.43,13.82,13.82,0,0,0-2.76-10.21,1,1,0,0,1,0-1.45c.65-.88,1.34-1.73,2-2.62a36.48,36.48,0,0,0,4.79-8.83,7.6,7.6,0,0,0,.63-3.23,1.73,1.73,0,0,0-2.06-1.74A7.32,7.32,0,0,0,96,8a22.85,22.85,0,0,0-6.28,7.27c-.69,1.18-1.26,2.44-1.89,3.67a.83.83,0,0,1-1.18.51c-.23-.07-.46-.16-.69-.21-.86-.17-1.72-.34-2.58-.48-.61-.1-.82-.34-.78-1,0-.12,0-.24,0-.36.41-1.8.85-3.6,1.23-5.4a22.13,22.13,0,0,0,.6-6.23,4.24,4.24,0,0,0-.61-2.11,1.24,1.24,0,0,0-1.36-.58,2.83,2.83,0,0,0-1.78,1.18,21,21,0,0,0-2,3.1A26.4,26.4,0,0,0,75.9,18.93a.88.88,0,0,1-.6.9A18.1,18.1,0,0,0,66.19,28c-.47.86-.86,1.76-1.28,2.62C66.71,32,66.89,32.67,66.16,35ZM78.31,57c-.75,0-1.47-.07-2.18-.13a10.06,10.06,0,0,1-4.95-1.59,4.14,4.14,0,0,1-1.52-5.43,5.83,5.83,0,0,1,2.76-2.74c.93-.47,1.9-.84,2.92-1.27-.46-.51-.91-1-1.39-1.54a41.63,41.63,0,0,0-6.13-4.95,27.05,27.05,0,0,1-4-3.15.57.57,0,0,0-.43-.11c-.36.07-.71.21-1.07.29-.64.13-1.28.21-1.91.35a.72.72,0,0,0-.38.35c-.21.41-.36.85-.58,1.24a4.5,4.5,0,0,1-5.13,2.23.5.5,0,0,0-.38.11A23.72,23.72,0,0,0,47.7,49.4,11.53,11.53,0,0,0,47,55.91c.87,4.49,3.63,7.45,7.78,9.17a20.09,20.09,0,0,0,6.51,1.33,24.38,24.38,0,0,0,9.91-1.33,11.06,11.06,0,0,0,6.21-5.27A8.18,8.18,0,0,0,78.31,57ZM56.15,25.84l0,.08a4.34,4.34,0,0,0-.52.09.75.75,0,0,0-.41,1.3l.15.19A31.21,31.21,0,0,1,59,31.71a.37.37,0,0,0,.3.14c.89-.21,1.78-.42,2.66-.66a.56.56,0,0,0,.31-.36,13.53,13.53,0,0,1,1.12-3.45c.23-.49.5-1,.75-1.44a.74.74,0,0,0,0-.83.63.63,0,0,0-.78-.17,3.84,3.84,0,0,0-1,.58,10.07,10.07,0,0,0-.78.82,2.23,2.23,0,0,1-2,.75,12,12,0,0,1-1.89-.64C57.19,26.26,56.67,26,56.15,25.84Zm45,36.1h.21a3.54,3.54,0,0,0,2.7-3.42q0-.75,0-1.5a2.7,2.7,0,0,0-1.32-2.52,2.36,2.36,0,0,0-1.59-.42ZM82,69.93h5.42l-.09-.24c-.38-1-.78-1.92-1.13-2.89-.28-.76-.25-.72-1.06-.75a1.33,1.33,0,0,0-1.5,1A27.36,27.36,0,0,1,82,69.93ZM57.4,35.31a5.75,5.75,0,0,0-.23-.93c-.28-.69-.75-.82-1.39-.44a2.71,2.71,0,0,0-1.21,2.86,1.08,1.08,0,0,0,1.83.65A2.8,2.8,0,0,0,57.4,35.31Zm3-.26c.29-.06.57-.11.84-.18,1-.24,1.94-.46,2.89-.73a.89.89,0,0,0,.72-1c-.12-.42-.5-.6-1.1-.48s-.89.21-1.33.33L60,33.6Z"/><path class="cls-1" d="M90.16,19.82a10.08,10.08,0,0,1,.3-1.09,11.62,11.62,0,0,1,3-4.65,2.45,2.45,0,0,1,1.13-.58A1.16,1.16,0,0,1,96,15a7.2,7.2,0,0,1-.61,1.62,15.58,15.58,0,0,1-2.54,3.68,4.59,4.59,0,0,1-.93.77C91,21.58,90.18,21.11,90.16,19.82Z"/><path class="cls-1" d="M74.73,35.41a1.5,1.5,0,0,1-1.69.1,1.34,1.34,0,0,1-.63-1.23c0-.27.13-.55.42-.57s.4.14.59.24a.86.86,0,0,1,.19.22,1.38,1.38,0,0,0,.66-1c0-.07-.1-.2-.19-.27a2,2,0,0,1-.81-1.27,1,1,0,0,1,.85-1.22,4.81,4.81,0,0,1,3,.47.93.93,0,0,1,.17,1.63,4,4,0,0,1-1.09.59c-.25.1-.35.23-.32.47a3.93,3.93,0,0,0,.07.6c.1.4.25.46.6.23a.56.56,0,0,1,.74,0,.61.61,0,0,1,.09.81,1.52,1.52,0,0,1-2.24.55Z"/><path class="cls-1" d="M85.32,30.74a4.83,4.83,0,0,1-1.06,2.82,2,2,0,0,1-1.79.85A1.65,1.65,0,0,1,81,32.76a4.73,4.73,0,0,1,1.19-3.5,1.86,1.86,0,0,1,1.46-.67C84.73,28.6,85.39,29.46,85.32,30.74Z"/><path class="cls-1" d="M78,16.43A10.94,10.94,0,0,1,79,12.32a3.12,3.12,0,0,1,.52-.81.92.92,0,0,1,1-.31.84.84,0,0,1,.67.78,12.06,12.06,0,0,1-.08,2.48,24.73,24.73,0,0,1-.8,3,2.18,2.18,0,0,1-.51.81.83.83,0,0,1-1.41-.2,10,10,0,0,1-.39-1.66Z"/><path class="cls-1" d="M67.35,30.58a5.36,5.36,0,0,1,1.11-3.23,1.85,1.85,0,0,1,.37-.37,1.56,1.56,0,0,1,1.6-.28A1.34,1.34,0,0,1,71.21,28,4.76,4.76,0,0,1,70,31.43c-.7.78-1.68.87-2.21.18A3.54,3.54,0,0,1,67.35,30.58Z"/><path class="cls-1" d="M62.08,43.75c.73.26,1.45.49,2.14.79a1.49,1.49,0,0,1,.88,1.14,1.32,1.32,0,0,1-1.73,1.46c-.48-.14-.95-.35-1.48-.55a2.5,2.5,0,0,0-.07.49c-.07,1-.11,1.91-.19,2.86,0,.34.1.45.39.58a12.19,12.19,0,0,1,2.22,1.13,4.16,4.16,0,0,1-1,7.12,9.39,9.39,0,0,1-1.67.47c-.34.06-.44.2-.44.52a5.12,5.12,0,0,1-.09,1,1.46,1.46,0,0,1-2,1.12,1.23,1.23,0,0,1-.83-1.18c0-.49,0-1,0-1.49a8.13,8.13,0,0,1-1.07-.33A10.27,10.27,0,0,1,55.51,58a2.1,2.1,0,0,1-.65-.94,1.29,1.29,0,0,1,1.69-1.63c.34.12.66.3,1,.45l1,.39c.06-.81.13-1.56.18-2.31,0-.44.19-1,0-1.3S58,52.22,57.61,52A4,4,0,0,1,55.23,48,4.44,4.44,0,0,1,58.58,44c.64-.19.63-.19.69-.84a6.73,6.73,0,0,1,.09-.77,1.29,1.29,0,0,1,1.42-1.14,1.32,1.32,0,0,1,1.3,1.33C62.09,43,62.08,43.4,62.08,43.75Zm-.81,12.51A1.41,1.41,0,0,0,62.67,55a1.44,1.44,0,0,0-1.21-1.38Zm-2.08-9.39a1.5,1.5,0,0,0-.93,1.32,1.36,1.36,0,0,0,.79,1.25Z"/><path class="cls-2" d="M17.59,81.55a1.13,1.13,0,0,1,1.3,1.27v23a1.14,1.14,0,0,1-1.3,1.28,1.13,1.13,0,0,1-1.29-1.28V87L11,94.82a1.5,1.5,0,0,1-1.2.78,1.49,1.49,0,0,1-1.22-.78L3.32,87v18.79A1.14,1.14,0,0,1,2,107.09a1.13,1.13,0,0,1-1.29-1.28v-23A1.13,1.13,0,0,1,2,81.55a1.32,1.32,0,0,1,1.14.64L9.81,92l6.68-9.89A1.23,1.23,0,0,1,17.59,81.55Z"/><path class="cls-3" d="M39.69,99.43A7.65,7.65,0,0,1,32,107.09a7.65,7.65,0,0,1-7.66-7.66V89.21A7.65,7.65,0,0,1,32,81.55a7.61,7.61,0,0,1,7.66,7.66Zm-2.55,0V89.21a5.11,5.11,0,1,0-10.22,0V99.43a5.11,5.11,0,1,0,10.22,0Z"/><path class="cls-3" d="M58.23,100.88V82.82a1.28,1.28,0,0,1,2.55,0v23a1.13,1.13,0,0,1-1.28,1.28,1.18,1.18,0,0,1-1.12-.64L48,87.74v18.07a1.28,1.28,0,0,1-2.56,0v-23a1.13,1.13,0,0,1,1.28-1.27,1.31,1.31,0,0,1,1.18.75Z"/><path class="cls-3" d="M67.56,107.09a1.12,1.12,0,0,1-1.27-1.28v-23a1.28,1.28,0,0,1,2.55,0v23A1.13,1.13,0,0,1,67.56,107.09Z"/><path class="cls-4" d="M96.4,92.91c2.95,1.44,4.43,3.62,4.43,6.52a6.79,6.79,0,0,1-2.74,5.42,10.08,10.08,0,0,1-6.59,2.24H83.72c-1,0-1.56-.42-1.56-1.28v-23c0-.85.52-1.27,1.56-1.27H91.5A8.37,8.37,0,0,1,97,83.4a5.65,5.65,0,0,1,2.25,4.53A5.79,5.79,0,0,1,96.4,92.91ZM84.73,84.1v7.66h6.88a5.93,5.93,0,0,0,3.65-1.12,3.19,3.19,0,0,0,0-5.42,6,6,0,0,0-3.65-1.12Zm0,10.22v10.22h6.81a7.89,7.89,0,0,0,4.84-1.48,4.32,4.32,0,0,0,0-7.26,7.83,7.83,0,0,0-4.84-1.48Z"/><path class="cls-3" d="M121,82.82V99.43a7.67,7.67,0,0,1-15.33,0V82.82a1.28,1.28,0,0,1,2.56,0V99.43a5.11,5.11,0,1,0,10.22,0V82.82a1.28,1.28,0,0,1,2.55,0Z"/><path class="cls-3" d="M139.54,100.88V82.82a1.28,1.28,0,0,1,2.56,0v23a1.13,1.13,0,0,1-1.28,1.28,1.17,1.17,0,0,1-1.12-.64L129.32,87.74v18.07a1.28,1.28,0,1,1-2.55,0v-23a1.13,1.13,0,0,1,1.28-1.27,1.32,1.32,0,0,1,1.18.75Z"/><path class="cls-3" d="M148.88,107.09a1.13,1.13,0,0,1-1.28-1.28v-23a1.28,1.28,0,0,1,2.56,0v23A1.13,1.13,0,0,1,148.88,107.09Z"/></g></g></svg>