<svg width="70" height="138" viewBox="0 0 70 138" fill="none" xmlns="http://www.w3.org/2000/svg">
<g clip-path="url(#clip0_444_2099)">
<path d="M17.59 79.73C17.7645 79.7017 17.9432 79.7148 18.1117 79.7682C18.2802 79.8215 18.4338 79.9136 18.5603 80.0372C18.6867 80.1607 18.7824 80.3121 18.8397 80.4793C18.8969 80.6466 18.9142 80.8249 18.89 81V104C18.9137 104.175 18.8963 104.354 18.839 104.521C18.7818 104.689 18.6863 104.841 18.5601 104.965C18.434 105.089 18.2806 105.182 18.1122 105.237C17.9439 105.292 17.7651 105.306 17.59 105.28C17.4157 105.305 17.2381 105.289 17.071 105.233C16.9039 105.178 16.7519 105.085 16.627 104.961C16.502 104.837 16.4074 104.685 16.3507 104.519C16.294 104.352 16.2766 104.174 16.3 104V85.2L11 93C10.881 93.219 10.7086 93.4044 10.4988 93.539C10.2891 93.6736 10.0487 93.7531 9.8 93.77C9.54934 93.7556 9.30654 93.6774 9.09472 93.5426C8.88291 93.4078 8.70915 93.221 8.59 93L3.32 85.2V104C3.34278 104.177 3.32387 104.356 3.26479 104.524C3.2057 104.692 3.10809 104.844 2.97976 104.967C2.85144 105.091 2.69597 105.182 2.52583 105.235C2.35569 105.288 2.1756 105.3 2 105.27C1.82818 105.291 1.65384 105.273 1.49018 105.216C1.32653 105.16 1.17786 105.067 1.05546 104.945C0.933064 104.822 0.840145 104.673 0.783754 104.51C0.727363 104.346 0.708981 104.172 0.730001 104V81C0.706937 80.8278 0.723897 80.6525 0.779565 80.488C0.835232 80.3234 0.928107 80.1738 1.05097 80.051C1.17383 79.9281 1.32338 79.8352 1.48797 79.7795C1.65257 79.7239 1.82778 79.7069 2 79.73C2.2281 79.7284 2.45276 79.7856 2.6524 79.8959C2.85204 80.0062 3.01995 80.166 3.14 80.36L9.79 90.18L16.47 80.29C16.5894 80.1049 16.7564 79.9553 16.9534 79.8568C17.1504 79.7583 17.3703 79.7145 17.59 79.73Z" fill="white" stroke="white" stroke-width="1.45" stroke-miterlimit="10"/>
<path d="M39.69 97.61C39.69 98.6185 39.4909 99.617 39.1041 100.548C38.7172 101.48 38.1503 102.325 37.4358 103.037C36.7214 103.749 35.8734 104.312 34.9406 104.696C34.0077 105.079 33.0084 105.274 32 105.27C29.9684 105.27 28.0201 104.463 26.5836 103.026C25.147 101.59 24.34 99.6416 24.34 97.61V87.39C24.3329 86.3846 24.5305 85.3882 24.9207 84.4616C25.311 83.535 25.8857 82.6974 26.61 82C28.0524 80.568 30.0025 79.7644 32.035 79.7644C34.0675 79.7644 36.0176 80.568 37.46 82C38.1829 82.7048 38.7537 83.5502 39.1373 84.4841C39.5208 85.418 39.7089 86.4206 39.69 87.43V97.61ZM37.14 97.61V87.39C37.14 86.719 37.0078 86.0545 36.751 85.4345C36.4942 84.8145 36.1178 84.2512 35.6433 83.7767C35.1688 83.3022 34.6055 82.9258 33.9855 82.669C33.3655 82.4122 32.7011 82.28 32.03 82.28C31.3589 82.28 30.6945 82.4122 30.0745 82.669C29.4545 82.9258 28.8912 83.3022 28.4167 83.7767C27.9422 84.2512 27.5658 84.8145 27.309 85.4345C27.0522 86.0545 26.92 86.719 26.92 87.39V97.61C26.92 98.2811 27.0522 98.9456 27.309 99.5655C27.5658 100.186 27.9422 100.749 28.4167 101.223C28.8912 101.698 29.4545 102.074 30.0745 102.331C30.6945 102.588 31.3589 102.72 32.03 102.72C32.7011 102.72 33.3655 102.588 33.9855 102.331C34.6055 102.074 35.1688 101.698 35.6433 101.223C36.1178 100.749 36.4942 100.186 36.751 99.5655C37.0078 98.9456 37.14 98.2811 37.14 97.61Z" fill="white" stroke="white" stroke-width="1.44" stroke-miterlimit="10"/>
<path d="M58.23 99.06V81C58.2582 80.6813 58.4048 80.3848 58.6408 80.1688C58.8768 79.9528 59.1851 79.833 59.505 79.833C59.8249 79.833 60.1332 79.9528 60.3692 80.1688C60.6052 80.3848 60.7517 80.6813 60.78 81V104C60.8051 104.174 60.7893 104.351 60.7339 104.518C60.6785 104.685 60.5849 104.836 60.4606 104.961C60.3364 105.085 60.1848 105.178 60.0181 105.234C59.8513 105.289 59.6739 105.305 59.5 105.28C59.2713 105.294 59.0437 105.24 58.8448 105.127C58.6459 105.013 58.4844 104.844 58.38 104.64L48 85.92V104C48 104.339 47.8651 104.665 47.6251 104.905C47.385 105.145 47.0595 105.28 46.72 105.28C46.3805 105.28 46.0549 105.145 45.8149 104.905C45.5748 104.665 45.44 104.339 45.44 104V81C45.4162 80.8258 45.4334 80.6486 45.4901 80.4822C45.5468 80.3159 45.6416 80.1651 45.7668 80.0418C45.8921 79.9185 46.0443 79.8261 46.2115 79.772C46.3787 79.7178 46.5563 79.7035 46.73 79.73C46.9774 79.7308 47.2196 79.8016 47.4284 79.9344C47.6372 80.0671 47.8042 80.2563 47.91 80.48L58.23 99.06Z" fill="white" stroke="white" stroke-width="1.44" stroke-miterlimit="10"/>
<path d="M67.56 105.27C67.3878 105.293 67.2126 105.276 67.048 105.22C66.8834 105.165 66.7338 105.072 66.611 104.949C66.4881 104.826 66.3952 104.677 66.3396 104.512C66.2839 104.347 66.2669 104.172 66.29 104V81C66.3182 80.6813 66.4648 80.3848 66.7008 80.1688C66.9368 79.9528 67.2451 79.833 67.565 79.833C67.8849 79.833 68.1932 79.9528 68.4292 80.1688C68.6652 80.3848 68.8117 80.6813 68.84 81V104C68.8634 104.173 68.8463 104.349 68.7901 104.515C68.7339 104.68 68.6401 104.83 68.5161 104.954C68.392 105.077 68.2411 105.169 68.0752 105.224C67.9093 105.279 67.733 105.295 67.56 105.27Z" fill="white" stroke="white" stroke-width="1.44" stroke-miterlimit="10"/>
<path d="M15.36 122.56C18.3067 124.007 19.7833 126.18 19.79 129.08C19.7857 130.133 19.5369 131.171 19.0632 132.111C18.5894 133.052 17.9037 133.87 17.06 134.5C15.1977 136.011 12.8576 136.809 10.46 136.75H2.68C1.68 136.75 1.12 136.32 1.12 135.47V112.47C1.12 111.62 1.64 111.19 2.68 111.19H10.46C12.4695 111.129 14.4346 111.788 16 113.05C16.702 113.58 17.2708 114.266 17.6614 115.054C18.052 115.842 18.2535 116.71 18.25 117.59C18.2458 118.599 17.9766 119.589 17.4694 120.461C16.9622 121.334 16.2348 122.057 15.36 122.56ZM3.69 113.76V121.42H10.57C11.8762 121.454 13.1577 121.061 14.22 120.3C14.6833 120.016 15.0659 119.617 15.3314 119.143C15.5968 118.668 15.7362 118.134 15.7362 117.59C15.7362 117.046 15.5968 116.512 15.3314 116.037C15.0659 115.563 14.6833 115.164 14.22 114.88C13.1601 114.114 11.8769 113.721 10.57 113.76H3.69ZM3.69 124V134.19H10.5C12.2329 134.248 13.9357 133.727 15.34 132.71C15.9468 132.318 16.4458 131.781 16.7913 131.147C17.1368 130.513 17.3179 129.802 17.3179 129.08C17.3179 128.358 17.1368 127.647 16.7913 127.013C16.4458 126.379 15.9468 125.841 15.34 125.45C13.9299 124.448 12.2288 123.938 10.5 124H3.69Z" fill="white" stroke="white" stroke-width="1.59" stroke-miterlimit="10"/>
<path d="M40 112.48V129.08C40.0013 130.087 39.8042 131.084 39.4198 132.014C39.0354 132.945 38.4714 133.79 37.76 134.503C37.0486 135.215 36.2037 135.78 35.2737 136.166C34.3437 136.551 33.3468 136.75 32.34 136.75C30.3066 136.747 28.3572 135.938 26.9194 134.501C25.4816 133.063 24.6726 131.113 24.67 129.08V112.48C24.6449 112.306 24.6606 112.129 24.7161 111.962C24.7715 111.795 24.8651 111.644 24.9894 111.519C25.1136 111.395 25.2652 111.301 25.4319 111.246C25.5987 111.191 25.7761 111.175 25.95 111.2C26.1239 111.175 26.3013 111.191 26.4681 111.246C26.6349 111.301 26.7864 111.395 26.9107 111.519C27.0349 111.644 27.1285 111.795 27.1839 111.962C27.2394 112.129 27.2551 112.306 27.23 112.48V129.08C27.23 130.435 27.7684 131.735 28.7267 132.693C29.685 133.652 30.9847 134.19 32.34 134.19C33.6953 134.19 34.995 133.652 35.9533 132.693C36.9116 131.735 37.45 130.435 37.45 129.08V112.48C37.4343 112.303 37.4556 112.125 37.5126 111.957C37.5695 111.788 37.6609 111.634 37.7808 111.503C37.9007 111.372 38.0466 111.267 38.2092 111.195C38.3717 111.124 38.5474 111.087 38.725 111.087C38.9026 111.087 39.0783 111.124 39.2409 111.195C39.4034 111.267 39.5493 111.372 39.6692 111.503C39.7891 111.634 39.8805 111.788 39.9374 111.957C39.9944 112.125 40.0157 112.303 40 112.48Z" fill="white" stroke="white" stroke-width="1.44" stroke-miterlimit="10"/>
<path d="M58.5 130.53V112.48C58.5 112.14 58.6349 111.815 58.8749 111.575C59.115 111.335 59.4405 111.2 59.78 111.2C60.1195 111.2 60.4451 111.335 60.6851 111.575C60.9251 111.815 61.06 112.14 61.06 112.48V135.48C61.0851 135.654 61.0694 135.831 61.0139 135.998C60.9585 136.165 60.8649 136.316 60.7406 136.441C60.6164 136.565 60.4649 136.658 60.2981 136.714C60.1313 136.769 59.9539 136.785 59.78 136.76C59.5518 136.771 59.3251 136.717 59.1267 136.603C58.9283 136.49 58.7664 136.322 58.66 136.12L48.29 117.39V135.47C48.29 135.809 48.1551 136.135 47.9151 136.375C47.6751 136.615 47.3495 136.75 47.01 136.75C46.6705 136.75 46.345 136.615 46.1049 136.375C45.8649 136.135 45.73 135.809 45.73 135.47V112.47C45.7069 112.298 45.7239 112.123 45.7796 111.958C45.8352 111.793 45.9281 111.644 46.051 111.521C46.1738 111.398 46.3234 111.305 46.488 111.25C46.6526 111.194 46.8278 111.177 47 111.2C47.2488 111.2 47.4922 111.272 47.7014 111.407C47.9105 111.542 48.0767 111.734 48.18 111.96L58.5 130.53Z" fill="white" stroke="white" stroke-width="1.44" stroke-miterlimit="10"/>
<path d="M67.84 136.75C67.6668 136.773 67.4906 136.756 67.3251 136.7C67.1597 136.644 67.0095 136.55 66.8864 136.426C66.7634 136.302 66.6707 136.151 66.6158 135.985C66.5609 135.819 66.5452 135.643 66.57 135.47V112.47C66.5543 112.293 66.5756 112.115 66.6326 111.947C66.6895 111.778 66.7809 111.624 66.9008 111.493C67.0207 111.362 67.1666 111.257 67.3292 111.185C67.4917 111.114 67.6674 111.077 67.845 111.077C68.0226 111.077 68.1983 111.114 68.3609 111.185C68.5234 111.257 68.6693 111.362 68.7892 111.493C68.9091 111.624 69.0005 111.778 69.0574 111.947C69.1144 112.115 69.1357 112.293 69.12 112.47V135.47C69.1451 135.644 69.1294 135.821 69.0739 135.988C69.0185 136.155 68.9249 136.306 68.8007 136.431C68.6764 136.555 68.5249 136.648 68.3581 136.704C68.1913 136.759 68.0139 136.775 67.84 136.75Z" fill="white" stroke="white" stroke-width="1.44" stroke-miterlimit="10"/>
</g>
<g clip-path="url(#clip1_444_2099)">
<path d="M25.56 23.19C27.0405 21.3174 28.8927 19.7716 31 18.65C31.2804 18.487 31.5749 18.3498 31.88 18.24C32.27 18.12 32.33 17.85 32.37 17.51C32.5 16.44 32.6 15.36 32.8 14.3C33.4149 10.4916 34.8478 6.8616 37 3.66C37.7563 2.48782 38.7857 1.51669 40 0.830002C40.5703 0.492344 41.212 0.29342 41.8733 0.249266C42.5345 0.205113 43.197 0.316966 43.8071 0.575808C44.4172 0.83465 44.958 1.23324 45.3858 1.73943C45.8136 2.24563 46.1165 2.84527 46.27 3.49C46.752 5.22686 46.8779 7.04326 46.64 8.83C46.3911 11.3807 45.9295 13.9062 45.26 16.38C45.2477 16.4013 45.2412 16.4254 45.2412 16.45C45.2412 16.4746 45.2477 16.4987 45.26 16.52L45.41 16.23C47.0767 12.5688 49.4761 9.28792 52.46 6.59C54.0793 5.10229 56.0746 4.08563 58.23 3.65C59.1235 3.40584 60.0698 3.43648 60.9456 3.73793C61.8214 4.03938 62.5861 4.59765 63.14 5.34C63.9397 6.50921 64.2519 7.94425 64.01 9.34C63.5555 12.1012 62.5744 14.7493 61.12 17.14C59.9642 19.3033 58.626 21.3641 57.12 23.3C57.0181 23.4122 56.9617 23.5584 56.9617 23.71C56.9617 23.8616 57.0181 24.0078 57.12 24.12C58.7722 26.7844 59.6291 29.8652 59.59 33C59.5855 35.9711 58.6827 38.8713 57 41.32C56.9132 41.4296 56.866 41.5652 56.866 41.705C56.866 41.8448 56.9132 41.9804 57 42.09C58.5076 44.6927 59.5244 47.5501 60 50.52C60.0305 50.6108 60.0506 50.7047 60.06 50.8C60.06 51.13 60.21 51.23 60.55 51.24C61.9932 51.2894 63.3702 51.8575 64.4282 52.8403C65.4863 53.823 66.1544 55.1544 66.31 56.59C66.5079 57.8501 66.4016 59.1393 66 60.35C65.6465 61.486 64.981 62.4999 64.0793 63.2761C63.1776 64.0523 62.076 64.5595 60.9 64.74C60.46 64.83 60.38 65.03 60.32 65.39C60.1641 66.6807 59.8274 67.943 59.32 69.14C59.16 69.48 58.95 69.79 58.74 70.14L59.69 70.23C60.87 70.35 62.05 70.45 63.23 70.58C63.5406 70.6017 63.8435 70.6868 64.12 70.83C64.3367 70.9702 64.4908 71.1888 64.55 71.44C64.61 71.75 64.36 71.97 64.05 72.03C63.2872 72.1971 62.5161 72.324 61.74 72.41C55.08 72.95 48.41 73.2 41.74 73.21C37.97 73.21 34.21 73.28 30.44 73.21C25.68 73.11 20.92 72.92 16.17 72.72C14.77 72.66 13.38 72.44 11.99 72.27C11.7359 72.2294 11.4875 72.1589 11.25 72.06C11.1118 72.0225 10.9898 71.9405 10.903 71.8266C10.8162 71.7126 10.7694 71.5732 10.77 71.43C10.7599 71.2794 10.8051 71.1302 10.8972 71.0105C10.9892 70.8909 11.1218 70.8089 11.27 70.78C11.8651 70.6096 12.4742 70.4925 13.09 70.43C16.3 70.27 19.5 70.11 22.71 70.01C25.4 69.92 28.08 69.9 30.77 69.85H31.2C30.94 69.35 30.7 68.85 30.43 68.41C30.43 68.35 30.19 68.41 30.08 68.41C28.61 68.69 27.15 69.09 25.67 69.26C20.9886 69.974 16.2007 69.3104 11.89 67.35C10.1463 66.5839 8.57155 65.4801 7.2565 64.1024C5.94146 62.7247 4.91216 61.1003 4.22795 59.3228C3.54375 57.5454 3.21818 55.6501 3.27003 53.7462C3.32187 51.8423 3.75009 49.9676 4.53 48.23C6.02945 44.7142 8.33487 41.6003 11.26 39.14C11.44 38.99 11.58 38.88 11.46 38.61C10.9242 37.2202 10.9466 35.6771 11.5226 34.3035C12.0985 32.9298 13.1833 31.8321 14.55 31.24C14.61 31.24 14.66 31.18 14.78 31.12C14.32 30.75 13.88 30.43 13.47 30.07C13.0399 29.7015 12.6356 29.3039 12.26 28.88C10.26 26.53 11.8 24.16 13.73 23.46C14.4307 23.2073 15.1759 23.1018 15.9192 23.15C16.6624 23.1981 17.3878 23.399 18.05 23.74C19.11 24.24 19.11 24.23 19.95 23.4C20.4088 22.8927 20.9854 22.506 21.6289 22.2741C22.2724 22.0421 22.963 21.972 23.64 22.07C24.3998 22.1837 25.087 22.5846 25.56 23.19ZM25.56 35.02C25.68 35.11 25.8 35.21 25.94 35.3C27.26 36.16 28.59 37 29.94 37.88C32.924 39.7407 35.5408 42.1337 37.66 44.94C37.713 44.9938 37.7772 45.0351 37.8481 45.0611C37.919 45.087 37.9948 45.0969 38.07 45.09C39.34 44.84 40.6 44.54 41.88 44.32C42.7595 44.1603 43.6477 44.0535 44.54 44C44.8199 43.9882 45.0952 44.0747 45.318 44.2446C45.5408 44.4145 45.6972 44.6569 45.76 44.93C45.7957 45.1941 45.746 45.4626 45.6183 45.6965C45.4906 45.9304 45.2915 46.1173 45.05 46.23C44.7765 46.3741 44.4881 46.4881 44.19 46.57C42.41 47.02 40.64 47.46 38.85 47.88C37.0894 48.2144 35.36 48.6961 33.68 49.32C33.0246 49.5661 32.4453 49.9799 32 50.52C31.8562 50.6698 31.7453 50.848 31.6745 51.0431C31.6036 51.2382 31.5742 51.446 31.5884 51.6532C31.6025 51.8603 31.6597 52.0622 31.7565 52.2459C31.8532 52.4296 31.9872 52.5911 32.15 52.72C32.4239 52.9587 32.7303 53.1574 33.06 53.31C33.991 53.7136 34.9867 53.9473 36 54C39.5403 54.2421 43.0893 53.678 46.38 52.35C46.93 52.14 47.47 51.87 48.03 51.7C48.204 51.6372 48.3899 51.6141 48.5739 51.6324C48.758 51.6507 48.9357 51.7099 49.0939 51.8058C49.2521 51.9017 49.3869 52.0318 49.4883 52.1865C49.5897 52.3412 49.6552 52.5167 49.68 52.7C49.7232 52.9712 49.6833 53.2492 49.5655 53.4973C49.4477 53.7454 49.2575 53.9521 49.02 54.09C48.1576 54.6136 47.2624 55.0812 46.34 55.49C44.5946 56.1813 42.7654 56.6386 40.9 56.85C40.62 56.85 40.55 57.01 40.52 57.25C40.301 58.7633 39.7916 60.22 39.02 61.54C38.72 62.06 38.37 62.54 38.02 63.07C38.0545 63.0938 38.0913 63.1139 38.13 63.13C38.2097 63.1396 38.2903 63.1396 38.37 63.13C41.1774 63.4066 44.0079 63.3428 46.8 62.94C47.61 62.82 47.9 62.94 48.07 63.78C48.3597 65.238 48.8265 66.6552 49.46 68C49.7213 68.6106 50.1608 69.1282 50.7211 69.4851C51.2813 69.8419 51.9361 70.0214 52.6 70C52.9331 70.0181 53.2669 70.0181 53.6 70C54.2723 69.9904 54.9244 69.7687 55.4632 69.3664C56.002 68.9641 56.3998 68.4019 56.6 67.76C56.8591 67.0087 57.0499 66.2356 57.17 65.45C57.8354 60.9908 57.8286 56.4572 57.15 52C56.8341 49.6959 56.1874 47.4494 55.23 45.33C54.7221 44.3216 54.1509 43.3464 53.52 42.41C53.16 41.83 53.12 41.66 53.52 41.11C53.571 41.0325 53.6279 40.9589 53.69 40.89C55.2141 39.0597 56.173 36.8256 56.45 34.46C56.9163 30.8241 55.92 27.1517 53.68 24.25C53.5817 24.1566 53.5034 24.0441 53.4499 23.9195C53.3963 23.7949 53.3688 23.6606 53.3688 23.525C53.3688 23.3894 53.3963 23.2551 53.4499 23.1305C53.5034 23.0059 53.5817 22.8934 53.68 22.8C54.33 21.92 55.02 21.07 55.68 20.18C57.6799 17.474 59.2922 14.502 60.47 11.35C60.9213 10.3344 61.1399 9.2309 61.11 8.12C61.11 7.8601 61.0517 7.60351 60.9395 7.36908C60.8273 7.13464 60.664 6.92832 60.4617 6.76526C60.2593 6.60221 60.0229 6.48656 59.77 6.42681C59.5171 6.36706 59.254 6.36474 59 6.42C57.6608 6.5997 56.3975 7.14656 55.35 8C52.7683 9.95426 50.6283 12.4316 49.07 15.27C48.38 16.45 47.81 17.71 47.19 18.94C47.1548 19.0573 47.0944 19.1655 47.013 19.257C46.9316 19.3485 46.8311 19.4211 46.7187 19.4696C46.6063 19.5182 46.4846 19.5416 46.3622 19.5383C46.2398 19.5349 46.1196 19.5047 46.01 19.45C45.77 19.38 45.55 19.29 45.31 19.24C44.45 19.07 43.59 18.9 42.73 18.76C42.12 18.66 41.91 18.42 41.95 17.76C41.9602 17.6386 41.9803 17.5182 42.01 17.4C42.42 15.6 42.85 13.8 43.23 12C43.7241 9.96225 43.9262 7.86461 43.83 5.77C43.8204 5.02458 43.6096 4.29559 43.22 3.66C43.0856 3.43012 42.8808 3.24959 42.6359 3.14514C42.391 3.04068 42.1189 3.01784 41.86 3.08C41.1353 3.22578 40.4965 3.6493 40.08 4.26C39.327 5.235 38.6579 6.27204 38.08 7.36C36.294 10.9474 35.3435 14.8928 35.3 18.9C35.3145 19.0954 35.2633 19.29 35.1546 19.4531C35.0459 19.6161 34.8859 19.7382 34.7 19.8C30.79 21.3834 27.5568 24.2841 25.56 28C25.09 28.86 24.69 29.76 24.27 30.62C26.08 32 26.26 32.67 25.53 35L25.56 35.02ZM37.68 57C36.92 57 36.21 56.93 35.5 56.87C33.7224 56.7897 31.9975 56.2412 30.5 55.28C29.6185 54.7318 28.9752 53.8725 28.6973 52.8724C28.4195 51.8723 28.5275 50.8043 29 49.88C29.5831 48.677 30.5607 47.71 31.77 47.14C32.69 46.67 33.66 46.3 34.68 45.87C34.23 45.36 33.78 44.87 33.29 44.33C31.4078 42.4899 29.3552 40.8325 27.16 39.38C25.7306 38.4581 24.3913 37.4034 23.16 36.23C23.1008 36.1846 23.0332 36.1515 22.9611 36.1326C22.889 36.1138 22.8138 36.1095 22.74 36.12C22.37 36.19 22.02 36.33 21.66 36.41C21.03 36.54 20.38 36.62 19.75 36.76C19.5844 36.8256 19.449 36.9503 19.37 37.11C19.16 37.52 19.02 37.96 18.79 38.35C18.3138 39.2452 17.5486 39.9529 16.6189 40.3578C15.6892 40.7628 14.6498 40.8411 13.67 40.58C13.6025 40.5709 13.5338 40.576 13.4684 40.5949C13.403 40.6139 13.3422 40.6463 13.29 40.69C10.5773 43.0789 8.44925 46.0588 7.07 49.4C6.19225 51.4508 5.92825 53.7122 6.31 55.91C7.18 60.4 9.94 63.36 14.1 65.08C16.1775 65.8821 18.3744 66.3316 20.6 66.41C23.9598 66.6576 27.3344 66.2047 30.51 65.08C33.1781 64.1826 35.4006 62.2965 36.72 59.81C37.2041 58.9377 37.5292 57.9862 37.68 57ZM15.51 25.84V25.92C15.3385 25.9361 15.1682 25.9628 15 26C14.8568 26.0163 14.7213 26.0735 14.6098 26.1647C14.4982 26.256 14.4153 26.3775 14.371 26.5146C14.3267 26.6518 14.3228 26.7988 14.3599 26.9381C14.397 27.0774 14.4734 27.203 14.58 27.3C14.6278 27.3678 14.6814 27.4313 14.74 27.49C16.0805 28.7839 17.3052 30.1926 18.4 31.7C18.433 31.7455 18.4768 31.7821 18.5274 31.8065C18.578 31.8309 18.6339 31.8425 18.69 31.84C19.58 31.63 20.47 31.42 21.36 31.18C21.4327 31.1447 21.497 31.0943 21.5487 31.0323C21.6004 30.9702 21.6384 30.8978 21.66 30.82C21.8768 29.6249 22.2535 28.4645 22.78 27.37C23.02 26.88 23.28 26.37 23.53 25.93C23.6157 25.8086 23.6616 25.6636 23.6616 25.515C23.6616 25.3664 23.6157 25.2214 23.53 25.1C23.4413 24.9867 23.316 24.9078 23.1755 24.8768C23.035 24.8458 22.8881 24.8646 22.76 24.93C22.3997 25.0726 22.0627 25.2681 21.76 25.51C21.4848 25.7685 21.2244 26.0423 20.98 26.33C20.7372 26.6138 20.4264 26.8315 20.0766 26.9627C19.7269 27.0938 19.3496 27.1342 18.98 27.08C18.3301 26.9195 17.6946 26.7054 17.08 26.44C16.55 26.26 16 26 15.51 25.84ZM60.51 61.94H60.72C61.4868 61.7539 62.1689 61.3156 62.6567 60.6954C63.1445 60.0752 63.4098 59.3091 63.41 58.52C63.41 58.02 63.41 57.52 63.41 57.02C63.4475 56.5186 63.3437 56.0167 63.1104 55.5712C62.8771 55.1258 62.5236 54.7547 62.09 54.5C61.631 54.1746 61.07 54.0255 60.51 54.08V61.94ZM41.28 69.94H46.7C46.7 69.85 46.64 69.78 46.62 69.7C46.24 68.7 45.84 67.78 45.48 66.81C45.21 66.05 45.23 66.09 44.42 66.06C44.1104 66.0238 43.798 66.0984 43.5382 66.2704C43.2783 66.4424 43.0876 66.7009 43 67C42.5007 68.0102 41.9396 68.9887 41.32 69.93L41.28 69.94ZM16.76 35.31C16.7127 34.9944 16.6391 34.6833 16.54 34.38C16.25 33.69 15.78 33.56 15.14 33.94C14.6692 34.2345 14.3012 34.6676 14.0863 35.1796C13.8715 35.6917 13.8204 36.2577 13.94 36.8C13.964 36.9992 14.0431 37.1879 14.1683 37.3447C14.2935 37.5015 14.46 37.6203 14.649 37.6878C14.838 37.7553 15.0421 37.7688 15.2383 37.7268C15.4345 37.6848 15.6152 37.589 15.76 37.45C16.0725 37.1877 16.324 36.8603 16.4967 36.4906C16.6694 36.121 16.7593 35.718 16.76 35.31ZM19.76 35.05L20.6 34.87C21.6 34.63 22.53 34.41 23.49 34.14C23.714 34.0962 23.9126 33.9679 24.0447 33.7818C24.1769 33.5957 24.2325 33.3659 24.2 33.14C24.09 32.72 23.71 32.54 23.1 32.66C22.66 32.75 22.21 32.87 21.77 32.99L19.36 33.65L19.76 35.05Z" fill="white" stroke="white" stroke-width="0.5" stroke-miterlimit="10"/>
<path d="M49.53 19.82C49.6005 19.4503 49.6975 19.086 49.82 18.73C50.4309 16.9611 51.4601 15.3658 52.82 14.08C53.1405 13.7927 53.5297 13.5929 53.95 13.5C54.1556 13.4375 54.3746 13.4333 54.5824 13.4879C54.7903 13.5425 54.9789 13.6539 55.1272 13.8094C55.2755 13.965 55.3777 14.1587 55.4223 14.3689C55.4669 14.5791 55.4523 14.7976 55.38 15C55.2426 15.5626 55.0377 16.1065 54.77 16.62C54.1011 17.9628 53.2423 19.2022 52.22 20.3C51.9453 20.5965 51.6326 20.8554 51.29 21.07C50.35 21.58 49.54 21.11 49.53 19.82Z" fill="white" stroke="white" stroke-width="0.5" stroke-miterlimit="10"/>
<path d="M34.1 35.4099C33.8611 35.5948 33.572 35.7033 33.2705 35.7211C32.9689 35.739 32.669 35.6654 32.41 35.5099C32.2008 35.384 32.0309 35.2021 31.9196 34.9848C31.8083 34.7674 31.7599 34.5233 31.78 34.2799C31.78 34.0099 31.91 33.7299 32.19 33.7099C32.47 33.6899 32.59 33.8499 32.78 33.9499C32.8554 34.012 32.9196 34.0864 32.97 34.1699C33.1481 34.0636 33.2999 33.9184 33.4142 33.7453C33.5285 33.5722 33.6022 33.3755 33.63 33.1699C33.63 33.0999 33.53 32.9699 33.45 32.8999C33.0248 32.5983 32.7342 32.1427 32.64 31.6299C32.6081 31.4934 32.6052 31.3517 32.6316 31.214C32.658 31.0763 32.7131 30.9456 32.7932 30.8306C32.8734 30.7156 32.9769 30.6187 33.0969 30.5462C33.2169 30.4737 33.3509 30.4273 33.49 30.4099C34.5145 30.2364 35.5677 30.4014 36.49 30.8799C36.6462 30.9426 36.7825 31.0465 36.8844 31.1805C36.9862 31.3146 37.0497 31.4737 37.0682 31.641C37.0867 31.8083 37.0594 31.9775 36.9893 32.1306C36.9191 32.2836 36.8088 32.4147 36.67 32.5099C36.3376 32.7647 35.9661 32.9639 35.57 33.0999C35.32 33.1999 35.22 33.3299 35.25 33.5699C35.2612 33.7717 35.288 33.9723 35.33 34.1699C35.43 34.5699 35.58 34.6299 35.92 34.3999C36.0222 34.3099 36.1538 34.2603 36.29 34.2603C36.4262 34.2603 36.5578 34.3099 36.66 34.3999C36.7719 34.5 36.8437 34.6372 36.8621 34.7862C36.8805 34.9351 36.8442 35.0857 36.76 35.2099C36.66 35.4057 36.519 35.5775 36.3466 35.7139C36.1742 35.8502 35.9744 35.9478 35.7609 36C35.5474 36.0521 35.3251 36.0577 35.1093 36.0163C34.8934 35.9749 34.689 35.8874 34.51 35.7599L34.1 35.4099Z" fill="white" stroke="white" stroke-width="0.5" stroke-miterlimit="10"/>
<path d="M44.68 30.74C44.6364 31.769 44.2649 32.7571 43.62 33.56C43.4212 33.845 43.1515 34.0732 42.8377 34.2223C42.5238 34.3713 42.1765 34.436 41.83 34.41C41.4216 34.37 41.0431 34.1783 40.7691 33.8729C40.4951 33.5674 40.3455 33.1703 40.35 32.76C40.3009 32.1264 40.381 31.4895 40.5856 30.8878C40.7902 30.2862 41.1149 29.7324 41.54 29.26C41.7159 29.0441 41.939 28.8714 42.1921 28.7552C42.4452 28.6391 42.7216 28.5825 43 28.59C44.09 28.6 44.75 29.46 44.68 30.74Z" fill="white" stroke="white" stroke-width="0.5" stroke-miterlimit="10"/>
<path d="M37.4 16.43C37.4376 15.0134 37.75 13.6175 38.32 12.32C38.4504 12.0248 38.6258 11.7515 38.84 11.51C38.9572 11.365 39.1148 11.2581 39.2928 11.2029C39.4709 11.1477 39.6614 11.1467 39.84 11.2C40.0208 11.2405 40.1837 11.3383 40.3044 11.4789C40.4251 11.6194 40.4972 11.7952 40.51 11.98C40.5586 12.8074 40.5318 13.6375 40.43 14.46C40.2231 15.476 39.9525 16.478 39.62 17.46C39.5119 17.7621 39.3416 18.038 39.12 18.27C39.0297 18.3815 38.9121 18.4677 38.7786 18.5202C38.6452 18.5727 38.5003 18.5897 38.3583 18.5696C38.2163 18.5494 38.0819 18.4928 37.9683 18.4053C37.8547 18.3177 37.7657 18.2022 37.71 18.07C37.5298 17.529 37.396 16.9737 37.31 16.41L37.4 16.43Z" fill="white" stroke="white" stroke-width="0.5" stroke-miterlimit="10"/>
<path d="M26.71 30.58C26.7179 29.4111 27.1077 28.2768 27.82 27.35C27.9301 27.2165 28.058 27.0988 28.2 27C28.4131 26.8107 28.6746 26.6843 28.9554 26.6349C29.2361 26.5855 29.525 26.6149 29.79 26.72C30.0336 26.8302 30.2383 27.0113 30.3775 27.2396C30.5166 27.468 30.5837 27.7329 30.57 28C30.6025 28.6223 30.5114 29.245 30.302 29.832C30.0926 30.419 29.7691 30.9587 29.35 31.42C28.66 32.2 27.67 32.29 27.15 31.6C26.9558 31.2825 26.8076 30.9391 26.71 30.58Z" fill="white" stroke="white" stroke-width="0.5" stroke-miterlimit="10"/>
<path d="M21.45 43.75C22.18 44.01 22.89 44.24 23.58 44.54C23.8122 44.6385 24.015 44.7952 24.1692 44.9948C24.3233 45.1945 24.4234 45.4304 24.46 45.68C24.4986 45.9044 24.4781 46.1351 24.4003 46.3492C24.3226 46.5633 24.1904 46.7535 24.0167 46.9009C23.8431 47.0483 23.634 47.1479 23.4101 47.1898C23.1862 47.2317 22.9552 47.2145 22.74 47.14C22.25 47 21.74 46.79 21.25 46.59C21.25 46.79 21.19 46.93 21.18 47.08C21.12 48.08 21.07 48.9899 20.99 49.9399C20.99 50.2799 21.1 50.39 21.38 50.52C22.1566 50.8198 22.9005 51.1985 23.6 51.65C24.1745 52.0983 24.6209 52.6901 24.8941 53.3657C25.1673 54.0414 25.2578 54.7771 25.1564 55.4988C25.0551 56.2205 24.7654 56.9028 24.3167 57.477C23.8679 58.0513 23.2758 58.4972 22.6 58.77C22.062 58.9765 21.5064 59.1339 20.94 59.24C20.59 59.3 20.49 59.4399 20.49 59.7599C20.4907 60.0949 20.464 60.4294 20.41 60.7599C20.3719 60.976 20.2862 61.1809 20.1592 61.3598C20.0322 61.5387 19.867 61.6871 19.6756 61.7943C19.4842 61.9015 19.2713 61.9648 19.0525 61.9796C18.8336 61.9944 18.6141 61.9604 18.41 61.88C18.1652 61.7967 17.9534 61.6372 17.8059 61.4249C17.6583 61.2125 17.5826 60.9584 17.59 60.7C17.59 60.21 17.59 59.6999 17.59 59.2099C17.2262 59.1247 16.8687 59.0144 16.52 58.88C15.9466 58.6394 15.3974 58.3448 14.88 58C14.5765 57.7565 14.3506 57.4298 14.23 57.06C14.1488 56.8277 14.1357 56.577 14.1923 56.3375C14.2489 56.0981 14.3729 55.8798 14.5495 55.7084C14.7261 55.5371 14.948 55.4198 15.1891 55.3705C15.4301 55.3211 15.6803 55.3418 15.91 55.43C16.25 55.55 16.57 55.73 16.91 55.88C17.25 56.03 17.53 56.12 17.91 56.27C17.97 55.46 18.03 54.7099 18.08 53.9599C18.08 53.5199 18.28 52.96 18.08 52.66C17.88 52.36 17.35 52.27 16.98 52.07C16.2033 51.7311 15.5544 51.1544 15.1266 50.4229C14.6989 49.6914 14.5145 48.843 14.6 48C14.6663 47.0579 15.032 46.1617 15.6437 45.4421C16.2553 44.7225 17.0809 44.2172 18 44C18.63 43.81 18.63 43.81 18.68 43.16C18.68 42.9 18.68 42.65 18.77 42.39C18.8077 42.0507 18.9784 41.7403 19.2445 41.5266C19.5107 41.3129 19.8506 41.2135 20.19 41.25C20.5384 41.2577 20.8701 41.401 21.1147 41.6493C21.3593 41.8976 21.4975 42.2314 21.5 42.58C21.46 43 21.45 43.4 21.45 43.75ZM20.63 56.2599C20.9731 56.2543 21.3022 56.1229 21.5547 55.8906C21.8073 55.6583 21.9657 55.3414 22 55C21.9903 54.6651 21.8642 54.3441 21.6433 54.0922C21.4225 53.8403 21.1207 53.6733 20.79 53.6199L20.63 56.2599ZM18.55 46.8699C18.2852 46.9784 18.057 47.1603 17.8922 47.3941C17.7274 47.628 17.633 47.9041 17.62 48.1899C17.6183 48.452 17.6918 48.7091 17.8319 48.9307C17.9719 49.1522 18.1725 49.329 18.41 49.4399L18.55 46.8699Z" fill="white" stroke="white" stroke-width="0.5" stroke-miterlimit="10"/>
</g>
<defs>
<clipPath id="clip0_444_2099">
<rect width="69.84" height="58.54" fill="white" transform="translate(0 79)"/>
</clipPath>
<clipPath id="clip1_444_2099">
<rect width="63.61" height="73.52" fill="white" transform="translate(3)"/>
</clipPath>
</defs>
</svg>
