<svg width="151" height="108" viewBox="0 0 151 108" fill="none" xmlns="http://www.w3.org/2000/svg">
<g clip-path="url(#clip0_443_2014)">
<path d="M66.2 23.19C67.6892 21.3141 69.5519 19.7681 71.67 18.65C71.9493 18.4851 72.2441 18.3478 72.55 18.24C72.94 18.12 73 17.85 73.04 17.51C73.17 16.44 73.26 15.36 73.46 14.3C74.084 10.4941 75.5162 6.866 77.66 3.66C78.4199 2.49086 79.4486 1.52052 80.66 0.830004C81.2293 0.498438 81.8683 0.304446 82.5258 0.263491C83.1834 0.222536 83.8414 0.33575 84.4475 0.594109C85.0536 0.852468 85.5909 1.24883 86.0167 1.7516C86.4425 2.25437 86.745 2.84966 86.9 3.49C87.382 5.22686 87.5079 7.04326 87.27 8.83C87.0211 11.3807 86.5595 13.9062 85.89 16.38C85.8777 16.4013 85.8713 16.4254 85.8713 16.45C85.8713 16.4746 85.8777 16.4987 85.89 16.52L86.04 16.23C87.6947 12.5748 90.0764 9.29478 93.04 6.59C94.6867 5.09112 96.714 4.07403 98.9 3.65C99.7935 3.40584 100.74 3.43648 101.616 3.73793C102.491 4.03938 103.256 4.59766 103.81 5.34C104.611 6.50849 104.92 7.94546 104.67 9.34C104.223 12.1018 103.245 14.7507 101.79 17.14C100.634 19.3031 99.2958 21.3639 97.79 23.3C97.6881 23.4122 97.6317 23.5584 97.6317 23.71C97.6317 23.8616 97.6881 24.0078 97.79 24.12C99.4601 26.7927 100.328 29.8886 100.29 33.04C100.292 36.0028 99.3957 38.8966 97.72 41.34C97.6349 41.4503 97.5887 41.5857 97.5887 41.725C97.5887 41.8643 97.6349 41.9997 97.72 42.11C99.2101 44.7162 100.21 47.5734 100.67 50.54C100.692 50.6322 100.709 50.7257 100.72 50.82C100.72 51.15 100.87 51.25 101.22 51.26C102.663 51.3094 104.04 51.8775 105.098 52.8603C106.156 53.843 106.824 55.1744 106.98 56.61C107.171 57.8717 107.058 59.1609 106.65 60.37C106.297 61.5047 105.633 62.5176 104.733 63.2937C103.834 64.0698 102.734 64.5778 101.56 64.76C101.12 64.85 101.04 65.05 100.98 65.41C100.829 66.7016 100.492 67.9646 99.98 69.16C99.82 69.5 99.62 69.81 99.4 70.16L100.35 70.25C101.54 70.37 102.72 70.47 103.9 70.6C104.208 70.6202 104.508 70.7054 104.78 70.85C105 70.9883 105.158 71.2072 105.22 71.46C105.231 71.6044 105.185 71.7473 105.091 71.8577C104.998 71.9682 104.864 72.0373 104.72 72.05C103.957 72.2155 103.186 72.3424 102.41 72.43C95.75 72.97 89.08 73.22 82.41 73.23C78.64 73.23 74.87 73.3 71.11 73.23C66.35 73.13 61.59 72.94 56.83 72.74C55.44 72.68 54.05 72.46 52.66 72.29C52.4056 72.2507 52.1571 72.1802 51.92 72.08C51.7816 72.0414 51.6592 71.9594 51.571 71.8459C51.4827 71.7325 51.4333 71.5937 51.43 71.45C51.4224 71.2984 51.4699 71.1492 51.5636 71.0297C51.6573 70.9103 51.791 70.8287 51.94 70.8C52.5349 70.6287 53.144 70.5115 53.76 70.45C56.96 70.29 60.17 70.13 63.38 70.03C66.06 69.94 68.75 69.92 71.38 69.87H71.81C71.55 69.37 71.32 68.87 71.05 68.43C71.05 68.37 70.81 68.43 70.69 68.43C69.22 68.71 67.77 69.11 66.29 69.28C61.6139 69.9995 56.8294 69.3428 52.52 67.39C50.7763 66.6239 49.2016 65.5201 47.8865 64.1424C46.5715 62.7647 45.5422 61.1403 44.858 59.3628C44.1738 57.5854 43.8482 55.6901 43.9 53.7862C43.9519 51.8824 44.3801 50.0076 45.16 48.27C46.6558 44.7521 48.9618 41.6375 51.89 39.18C52.06 39.03 52.21 38.92 52.09 38.65C51.5516 37.2604 51.5728 35.7163 52.149 34.342C52.7252 32.9676 53.8116 31.8701 55.18 31.28L55.41 31.16C54.95 30.79 54.51 30.47 54.1 30.11C53.6699 29.7415 53.2656 29.3439 52.89 28.92C50.89 26.57 52.42 24.2 54.36 23.5C55.0608 23.2479 55.8059 23.1427 56.5491 23.1909C57.2923 23.239 58.0176 23.4396 58.68 23.78C59.73 24.28 59.74 24.27 60.57 23.44C61.0309 22.9326 61.6092 22.5459 62.2543 22.3141C62.8994 22.0822 63.5915 22.0121 64.27 22.11C65.0274 22.2111 65.7177 22.5974 66.2 23.19ZM66.2 35.02L66.58 35.3C67.91 36.16 69.24 37 70.58 37.88C73.5661 39.7379 76.1833 42.1314 78.3 44.94C78.3549 44.994 78.4209 45.0354 78.4935 45.0613C78.566 45.0872 78.6433 45.097 78.72 45.09C79.99 44.84 81.25 44.54 82.52 44.32C83.3996 44.1612 84.2878 44.0543 85.18 44C85.4688 43.9953 85.75 44.0932 85.9734 44.2763C86.1968 44.4594 86.348 44.7159 86.4 45C86.4357 45.2641 86.386 45.5326 86.2583 45.7665C86.1306 46.0004 85.9315 46.1873 85.69 46.3C85.4157 46.4424 85.1275 46.5563 84.83 46.64C83.05 47.0933 81.27 47.53 79.49 47.95C77.7291 48.283 75.9995 48.7647 74.32 49.39C73.6691 49.6248 73.0902 50.0245 72.64 50.55C72.4962 50.6998 72.3853 50.878 72.3145 51.0731C72.2436 51.2682 72.2142 51.476 72.2284 51.6832C72.2425 51.8903 72.2998 52.0922 72.3965 52.2759C72.4932 52.4597 72.6272 52.6211 72.79 52.75C73.0605 52.9932 73.3676 53.1922 73.7 53.34C74.651 53.7438 75.6676 53.9708 76.7 54.01C80.2402 54.2514 83.7891 53.6873 87.08 52.36C87.63 52.15 88.16 51.88 88.73 51.71C88.904 51.6472 89.0899 51.6241 89.274 51.6424C89.458 51.6607 89.6357 51.7199 89.7939 51.8158C89.9521 51.9117 90.0869 52.0418 90.1883 52.1965C90.2897 52.3512 90.3552 52.5267 90.38 52.71C90.4209 52.9822 90.3788 53.2604 90.2593 53.5083C90.1398 53.7562 89.9484 53.9624 89.71 54.1C88.8388 54.6117 87.9333 55.0628 87 55.45C85.2584 56.1425 83.4324 56.5998 81.57 56.81C81.29 56.81 81.22 56.97 81.18 57.21C80.9674 58.7219 80.4649 60.1786 79.7 61.5C79.4 62.02 79.05 62.5 78.7 63.03L78.82 63.09C78.8963 63.1004 78.9737 63.1004 79.05 63.09C81.8607 63.3674 84.6946 63.3036 87.49 62.9C88.3 62.78 88.58 62.9 88.75 63.74C89.0302 65.2071 89.4798 66.6367 90.09 68C90.3531 68.6115 90.7944 69.1294 91.3563 69.4862C91.9183 69.8429 92.5747 70.022 93.24 70C93.5897 70.02 93.9403 70.02 94.29 70C94.9627 69.992 95.6155 69.7708 96.1546 69.3683C96.6937 68.9658 97.0912 68.4027 97.29 67.76C97.5537 67.0101 97.7446 66.2365 97.86 65.45C98.535 60.9988 98.535 56.4712 97.86 52.02C97.5441 49.7159 96.8974 47.4694 95.94 45.35C95.4283 44.3437 94.8573 43.3687 94.23 42.43C93.87 41.85 93.83 41.68 94.23 41.13L94.41 40.91C95.9355 39.0816 96.8916 36.8461 97.16 34.48C97.6302 30.8453 96.6374 27.1727 94.4 24.27C94.3017 24.1766 94.2234 24.0641 94.1699 23.9395C94.1164 23.8149 94.0888 23.6806 94.0888 23.545C94.0888 23.4094 94.1164 23.2751 94.1699 23.1505C94.2234 23.0259 94.3017 22.9134 94.4 22.82C95.05 21.94 95.74 21.09 96.4 20.2C98.3962 17.4916 100.008 14.5201 101.19 11.37C101.633 10.3523 101.848 9.24976 101.82 8.14C101.826 7.88135 101.774 7.62458 101.668 7.3886C101.562 7.15263 101.405 6.94346 101.207 6.77651C101.009 6.60955 100.777 6.48906 100.526 6.4239C100.276 6.35874 100.014 6.35057 99.76 6.4C98.3802 6.56561 97.0761 7.12057 96 8C93.4152 9.95093 91.2745 12.429 89.72 15.27C89.03 16.45 88.46 17.71 87.83 18.94C87.7964 19.0583 87.7368 19.1677 87.6557 19.2602C87.5746 19.3527 87.4739 19.426 87.361 19.4748C87.248 19.5237 87.1256 19.5467 87.0027 19.5425C86.8797 19.5382 86.7593 19.5066 86.65 19.45C86.42 19.38 86.19 19.29 85.96 19.24C85.1 19.07 84.24 18.9 83.38 18.76C82.77 18.66 82.56 18.42 82.6 17.76C82.6 17.64 82.6 17.52 82.6 17.4C83.01 15.6 83.45 13.8 83.83 12C84.3241 9.96225 84.5262 7.86461 84.43 5.77C84.4155 5.0253 84.2051 4.29755 83.82 3.66C83.6856 3.43012 83.4808 3.2496 83.2359 3.14514C82.991 3.04068 82.7189 3.01785 82.46 3.08C81.7353 3.22578 81.0965 3.6493 80.68 4.26C79.9237 5.23267 79.2544 6.27 78.68 7.36C76.8849 10.9549 75.9341 14.912 75.9 18.93C75.9145 19.1254 75.8633 19.32 75.7546 19.4831C75.6459 19.6461 75.4859 19.7682 75.3 19.83C71.4069 21.4131 68.1861 24.3016 66.19 28C65.72 28.86 65.33 29.76 64.91 30.62C66.71 32 66.89 32.67 66.16 35L66.2 35.02ZM78.31 57C77.56 57 76.84 56.93 76.13 56.87C74.3692 56.7829 72.6622 56.2346 71.18 55.28C70.2875 54.7344 69.6347 53.8711 69.3527 52.8638C69.0707 51.8564 69.1805 50.7797 69.66 49.85C70.2393 48.6477 71.2135 47.6805 72.42 47.11C73.35 46.64 74.32 46.27 75.34 45.84C74.88 45.33 74.43 44.84 73.95 44.3C72.0678 42.4599 70.0152 40.8025 67.82 39.35C66.3906 38.4281 65.0513 37.3734 63.82 36.2C63.7593 36.1538 63.69 36.1203 63.6162 36.1014C63.5423 36.0825 63.4654 36.0787 63.39 36.09C63.03 36.16 62.68 36.3 62.32 36.38C61.68 36.51 61.04 36.59 60.41 36.73C60.2444 36.7956 60.109 36.9203 60.03 37.08C59.82 37.49 59.67 37.93 59.45 38.32C58.972 39.216 58.205 39.9241 57.2736 40.3289C56.3422 40.7338 55.3013 40.8117 54.32 40.55C54.2525 40.5415 54.184 40.5469 54.1187 40.5658C54.0533 40.5847 53.9925 40.6168 53.94 40.66C51.2192 43.058 49.0845 46.0479 47.7 49.4C46.8425 51.4568 46.5994 53.718 47 55.91C47.87 60.4 50.63 63.36 54.78 65.08C56.8611 65.8816 59.0612 66.3311 61.29 66.41C64.6498 66.6561 68.024 66.2032 71.2 65.08C73.865 64.1772 76.0857 62.2927 77.41 59.81C77.8779 58.9356 78.1828 57.9835 78.31 57ZM56.15 25.84V25.92C55.975 25.9394 55.8014 25.9695 55.63 26.01C55.4876 26.0279 55.3534 26.0863 55.2432 26.1782C55.1329 26.2701 55.0514 26.3917 55.0083 26.5286C54.9651 26.6654 54.9621 26.8118 54.9996 26.9503C55.0372 27.0888 55.1137 27.2137 55.22 27.31L55.37 27.5C56.7028 28.7926 57.9176 30.2015 59 31.71C59.0357 31.755 59.0814 31.7911 59.1335 31.8154C59.1856 31.8397 59.2426 31.8516 59.3 31.85C60.19 31.64 61.08 31.43 61.96 31.19C62.0349 31.1564 62.1015 31.1067 62.1551 31.0445C62.2086 30.9823 62.2479 30.9091 62.27 30.83C62.4868 29.6349 62.8635 28.4745 63.39 27.38C63.62 26.89 63.89 26.38 64.14 25.94C64.223 25.8175 64.2673 25.673 64.2673 25.525C64.2673 25.3771 64.223 25.2325 64.14 25.11C64.0496 24.9959 63.9226 24.9167 63.7804 24.8857C63.6382 24.8547 63.4897 24.8739 63.36 24.94C62.9993 25.0818 62.6622 25.2773 62.36 25.52C62.0848 25.7785 61.8244 26.0523 61.58 26.34C61.336 26.6224 61.0251 26.839 60.6756 26.97C60.3262 27.1011 59.9495 27.1423 59.58 27.09C58.9333 26.9295 58.3011 26.7154 57.69 26.45C57.19 26.26 56.67 26 56.15 25.84ZM101.15 61.94H101.36C102.127 61.7527 102.809 61.3143 103.299 60.6946C103.788 60.075 104.056 59.3095 104.06 58.52C104.06 58.02 104.06 57.52 104.06 57.02C104.096 56.5187 103.992 56.0173 103.759 55.5721C103.526 55.1269 103.173 54.7556 102.74 54.5C102.278 54.1739 101.713 54.0248 101.15 54.08V61.94ZM82 69.93H87.42L87.33 69.69C86.95 68.69 86.55 67.77 86.2 66.8C85.92 66.04 85.95 66.08 85.14 66.05C84.8101 65.9979 84.4726 66.0718 84.1947 66.2571C83.9168 66.4424 83.7188 66.7254 83.64 67.05C83.152 68.0423 82.6044 69.004 82 69.93ZM57.4 35.31C57.3493 34.9941 57.2724 34.6831 57.17 34.38C56.89 33.69 56.42 33.56 55.78 33.94C55.3095 34.2353 54.9412 34.668 54.7247 35.1795C54.5083 35.691 54.4543 36.2567 54.57 36.8C54.5926 37.0012 54.6713 37.1921 54.7972 37.3507C54.923 37.5093 55.091 37.6294 55.2818 37.6972C55.4726 37.765 55.6786 37.7777 55.8764 37.734C56.0741 37.6903 56.2555 37.5919 56.4 37.45C56.7125 37.1877 56.964 36.8603 57.1367 36.4906C57.3095 36.121 57.3993 35.718 57.4 35.31ZM60.4 35.05C60.69 34.99 60.97 34.94 61.24 34.87C62.24 34.63 63.18 34.41 64.13 34.14C64.3559 34.0984 64.5569 33.9711 64.6911 33.7848C64.8252 33.5984 64.8822 33.3674 64.85 33.14C64.73 32.72 64.35 32.54 63.75 32.66C63.15 32.78 62.86 32.87 62.42 32.99L60 33.6L60.4 35.05Z" fill="white" stroke="white" stroke-width="0.5" stroke-miterlimit="10"/>
<path d="M90.16 19.82C90.2395 19.4514 90.3397 19.0875 90.46 18.73C91.0709 16.9611 92.1001 15.3658 93.46 14.08C93.7791 13.7907 94.1689 13.5907 94.59 13.5C94.7944 13.4423 95.0107 13.4418 95.2153 13.4985C95.4199 13.5553 95.605 13.6671 95.7505 13.8219C95.8959 13.9766 95.9961 14.1683 96.0401 14.376C96.0841 14.5838 96.0702 14.7996 96 15C95.8626 15.5626 95.6577 16.1065 95.39 16.62C94.7247 17.9624 93.8692 19.2019 92.85 20.3C92.5753 20.5965 92.2626 20.8554 91.92 21.07C91 21.58 90.18 21.11 90.16 19.82Z" fill="white" stroke="white" stroke-width="0.5" stroke-miterlimit="10"/>
<path d="M74.73 35.41C74.4911 35.5949 74.202 35.7033 73.9005 35.7212C73.5989 35.739 73.299 35.6654 73.04 35.51C72.8332 35.3815 72.6652 35.1992 72.5542 34.9825C72.4432 34.7657 72.3934 34.5229 72.41 34.28C72.41 34.01 72.54 33.73 72.83 33.71C73.12 33.69 73.23 33.85 73.42 33.95C73.4954 34.012 73.5596 34.0864 73.61 34.17C73.7881 34.0636 73.9399 33.9185 74.0542 33.7453C74.1685 33.5722 74.2422 33.3755 74.27 33.17C74.27 33.1 74.17 32.97 74.08 32.9C73.6548 32.5984 73.3642 32.1427 73.27 31.63C73.2381 31.4934 73.2352 31.3517 73.2616 31.214C73.288 31.0763 73.3431 30.9457 73.4232 30.8306C73.5034 30.7156 73.6069 30.6187 73.7269 30.5462C73.8469 30.4737 73.9809 30.4273 74.12 30.41C75.1445 30.2386 76.197 30.4035 77.12 30.88C77.2756 30.9437 77.411 31.0484 77.5118 31.183C77.6126 31.3175 77.6751 31.4769 77.6925 31.6441C77.71 31.8114 77.6818 31.9802 77.6109 32.1327C77.54 32.2851 77.4291 32.4155 77.29 32.51C76.9595 32.7621 76.5918 32.9611 76.2 33.1C75.95 33.2 75.85 33.33 75.88 33.57C75.8879 33.7715 75.9113 33.9721 75.95 34.17C76.05 34.57 76.2 34.63 76.55 34.4C76.6523 34.31 76.7838 34.2603 76.92 34.2603C77.0562 34.2603 77.1878 34.31 77.29 34.4C77.4022 34.5001 77.4735 34.6382 77.4901 34.7877C77.5067 34.9373 77.4675 35.0876 77.38 35.21C77.2811 35.4054 77.141 35.5772 76.9695 35.7134C76.798 35.8497 76.5991 35.9473 76.3864 35.9996C76.1736 36.0518 75.9521 36.0574 75.737 36.0161C75.5219 35.9747 75.3182 35.8874 75.14 35.76L74.73 35.41Z" fill="white" stroke="white" stroke-width="0.5" stroke-miterlimit="10"/>
<path d="M85.32 30.74C85.2764 31.769 84.905 32.7571 84.26 33.56C84.0612 33.845 83.7916 34.0732 83.4777 34.2223C83.1638 34.3713 82.8165 34.436 82.47 34.41C82.0643 34.3655 81.6895 34.1722 81.418 33.8675C81.1465 33.5627 80.9976 33.1682 81 32.76C80.9532 32.1266 81.0345 31.4903 81.2389 30.889C81.4434 30.2876 81.7668 29.7336 82.19 29.26C82.3678 29.0463 82.5913 28.8752 82.8439 28.7593C83.0966 28.6433 83.372 28.5855 83.65 28.59C84.73 28.6 85.39 29.46 85.32 30.74Z" fill="white" stroke="white" stroke-width="0.5" stroke-miterlimit="10"/>
<path d="M78 16.43C78.0628 15.008 78.4025 13.6119 79 12.32C79.1304 12.0248 79.3058 11.7515 79.52 11.51C79.6354 11.3628 79.7929 11.2543 79.9716 11.1989C80.1503 11.1435 80.3416 11.1439 80.52 11.2C80.7023 11.2374 80.867 11.3344 80.9883 11.4755C81.1096 11.6167 81.1805 11.7942 81.19 11.98C81.2487 12.8072 81.2219 13.6383 81.11 14.46C80.9064 15.4758 80.6392 16.4778 80.31 17.46C80.2021 17.7645 80.0279 18.0411 79.8 18.27C79.7097 18.3815 79.5921 18.4677 79.4586 18.5202C79.3252 18.5727 79.1803 18.5897 79.0383 18.5696C78.8963 18.5494 78.7619 18.4928 78.6483 18.4053C78.5347 18.3177 78.4457 18.2022 78.39 18.07C78.213 17.5288 78.0825 16.9735 78 16.41V16.43Z" fill="white" stroke="white" stroke-width="0.5" stroke-miterlimit="10"/>
<path d="M67.35 30.58C67.3579 29.4111 67.7477 28.2768 68.46 27.35C68.5652 27.2098 68.6898 27.0852 68.83 26.98C69.0453 26.7909 69.3085 26.6647 69.5907 26.6153C69.8729 26.5659 70.1633 26.5952 70.43 26.7C70.6761 26.8126 70.8823 26.997 71.0215 27.2291C71.1608 27.4611 71.2265 27.7299 71.21 28C71.2766 29.2584 70.8415 30.4919 70 31.43C69.3 32.21 68.32 32.3 67.79 31.61C67.5896 31.2922 67.4411 30.9445 67.35 30.58Z" fill="white" stroke="white" stroke-width="0.5" stroke-miterlimit="10"/>
<path d="M62.08 43.75C62.81 44.01 63.53 44.24 64.22 44.54C64.4511 44.6402 64.653 44.7973 64.8069 44.9966C64.9608 45.196 65.0616 45.4311 65.1 45.68C65.1364 45.905 65.114 46.1356 65.0348 46.3494C64.9557 46.5631 64.8225 46.7527 64.6483 46.8997C64.4741 47.0468 64.2648 47.1462 64.0408 47.1883C63.8168 47.2304 63.5857 47.2137 63.37 47.14C62.89 47 62.42 46.79 61.89 46.59C61.8505 46.7506 61.8271 46.9148 61.82 47.08C61.75 48.08 61.71 48.99 61.63 49.94C61.63 50.28 61.73 50.39 62.02 50.52C62.7966 50.8199 63.5405 51.1985 64.24 51.65C64.8118 52.1 65.2555 52.6922 65.5269 53.3673C65.7982 54.0424 65.8878 54.7769 65.7866 55.4975C65.6854 56.218 65.397 56.8994 64.9501 57.4736C64.5033 58.0479 63.9136 58.4949 63.24 58.77C62.699 58.9779 62.14 59.1352 61.57 59.24C61.23 59.3 61.13 59.44 61.13 59.76C61.1328 60.0955 61.1027 60.4304 61.04 60.76C61.0054 60.9779 60.9218 61.1851 60.7957 61.366C60.6695 61.547 60.5039 61.697 60.3115 61.8047C60.119 61.9125 59.9046 61.9753 59.6844 61.9883C59.4642 62.0014 59.2439 61.9643 59.04 61.88C58.795 61.7958 58.5829 61.6364 58.4338 61.4245C58.2848 61.2126 58.2065 60.959 58.21 60.7C58.21 60.21 58.21 59.7 58.21 59.21C57.8462 59.1247 57.4887 59.0145 57.14 58.88C56.5713 58.6364 56.0257 58.3418 55.51 58C55.2106 57.7528 54.9856 57.4274 54.86 57.06C54.7775 56.8267 54.7638 56.5745 54.8206 56.3336C54.8775 56.0926 55.0025 55.8732 55.1806 55.7013C55.3588 55.5295 55.5826 55.4125 55.8254 55.3644C56.0683 55.3163 56.3198 55.3391 56.55 55.43C56.89 55.55 57.21 55.73 57.55 55.88L58.55 56.27C58.61 55.46 58.68 54.71 58.73 53.96C58.73 53.52 58.92 52.96 58.73 52.66C58.54 52.36 58 52.22 57.61 52C56.8456 51.6649 56.2051 51.0991 55.7783 50.3818C55.3515 49.6645 55.1598 48.8317 55.23 48C55.2948 47.065 55.6537 46.1745 56.2555 45.456C56.8572 44.7375 57.6709 44.2279 58.58 44C59.22 43.81 59.21 43.81 59.27 43.16C59.2852 42.9018 59.3152 42.6447 59.36 42.39C59.3977 42.0508 59.5684 41.7404 59.8345 41.5267C60.1007 41.313 60.4406 41.2135 60.78 41.25C61.1283 41.2553 61.4605 41.398 61.704 41.6472C61.9475 41.8963 62.0827 42.2316 62.08 42.58C62.09 43 62.08 43.4 62.08 43.75ZM61.27 56.26C61.6176 56.2595 61.9528 56.1306 62.2112 55.8981C62.4696 55.6655 62.633 55.3457 62.67 55C62.6603 54.6652 62.5342 54.3442 62.3133 54.0923C62.0925 53.8404 61.7907 53.6734 61.46 53.62L61.27 56.26ZM59.19 46.87C58.9252 46.9784 58.697 47.1603 58.5322 47.3942C58.3675 47.6281 58.273 47.9042 58.26 48.19C58.2571 48.4524 58.3301 48.71 58.4703 48.9318C58.6104 49.1536 58.8118 49.3301 59.05 49.44L59.19 46.87Z" fill="white" stroke="white" stroke-width="0.5" stroke-miterlimit="10"/>
<path d="M17.59 81.55C17.7645 81.5217 17.9432 81.5348 18.1117 81.5882C18.2802 81.6415 18.4338 81.7336 18.5603 81.8572C18.6867 81.9807 18.7824 82.1321 18.8397 82.2993C18.8969 82.4666 18.9142 82.6449 18.89 82.82V105.82C18.9137 105.995 18.8963 106.174 18.839 106.341C18.7818 106.509 18.6863 106.661 18.5601 106.785C18.434 106.909 18.2806 107.002 18.1122 107.057C17.9439 107.112 17.7651 107.126 17.59 107.1C17.4153 107.127 17.2368 107.112 17.0687 107.058C16.9006 107.003 16.7477 106.91 16.6223 106.785C16.4968 106.661 16.4023 106.509 16.3463 106.341C16.2904 106.173 16.2745 105.995 16.3 105.82V87L11 94.82C10.8808 95.0397 10.7086 95.2261 10.499 95.3623C10.2895 95.4986 10.0492 95.5802 9.8 95.6C9.54711 95.5844 9.30235 95.5046 9.08888 95.3682C8.87541 95.2317 8.70026 95.043 8.58 94.82L3.32 87V105.79C3.34805 105.969 3.33309 106.152 3.27634 106.324C3.21959 106.496 3.1227 106.652 2.99369 106.779C2.86468 106.906 2.70725 107 2.53445 107.054C2.36165 107.109 2.17845 107.121 2 107.09C1.82532 107.117 1.64677 107.102 1.47869 107.048C1.31062 106.993 1.15771 106.9 1.03225 106.775C0.906792 106.651 0.812282 106.499 0.756316 106.331C0.70035 106.163 0.684488 105.985 0.710005 105.81V82.81C0.687933 82.6366 0.706371 82.4605 0.76387 82.2955C0.821369 82.1305 0.916362 81.981 1.04138 81.8589C1.1664 81.7368 1.31804 81.6453 1.48437 81.5917C1.65071 81.5381 1.82721 81.5238 2 81.55C2.22924 81.5485 2.45491 81.6067 2.6548 81.7189C2.8547 81.8312 3.02192 81.9935 3.14 82.19L9.81001 92L16.49 82.11C16.6078 81.928 16.7715 81.7804 16.9647 81.682C17.1578 81.5837 17.3736 81.5381 17.59 81.55Z" fill="white" stroke="white" stroke-width="1.45" stroke-miterlimit="10"/>
<path d="M39.69 99.43C39.6913 100.439 39.4931 101.438 39.1068 102.37C38.7204 103.302 38.1535 104.148 37.4388 104.86C36.724 105.572 35.8755 106.136 34.9421 106.518C34.0087 106.901 33.0088 107.095 32 107.09C30.9937 107.091 29.997 106.894 29.0671 106.51C28.1371 106.125 27.2922 105.561 26.5806 104.849C25.8691 104.138 25.3049 103.293 24.9204 102.363C24.5359 101.433 24.3387 100.436 24.34 99.43V89.21C24.3387 88.2037 24.5359 87.2071 24.9204 86.2771C25.3049 85.3472 25.8691 84.5022 26.5806 83.7907C27.2922 83.0791 28.1371 82.5149 29.0671 82.1304C29.997 81.7459 30.9937 81.5487 32 81.55C33.0078 81.5434 34.0068 81.737 34.9392 82.1196C35.8716 82.5022 36.7186 83.0662 37.4313 83.7788C38.1439 84.4914 38.7079 85.3385 39.0905 86.2708C39.4731 87.2032 39.6666 88.2022 39.66 89.21L39.69 99.43ZM37.14 99.43V89.21C37.14 88.539 37.0078 87.8745 36.751 87.2545C36.4942 86.6345 36.1178 86.0712 35.6433 85.5967C35.1688 85.1222 34.6055 84.7458 33.9855 84.489C33.3655 84.2322 32.7011 84.1 32.03 84.1C31.3589 84.1 30.6945 84.2322 30.0745 84.489C29.4545 84.7458 28.8912 85.1222 28.4167 85.5967C27.9422 86.0712 27.5658 86.6345 27.309 87.2545C27.0522 87.8745 26.92 88.539 26.92 89.21V99.43C26.92 100.101 27.0522 100.766 27.309 101.386C27.5658 102.006 27.9422 102.569 28.4167 103.043C28.8912 103.518 29.4545 103.894 30.0745 104.151C30.6945 104.408 31.3589 104.54 32.03 104.54C32.7011 104.54 33.3655 104.408 33.9855 104.151C34.6055 103.894 35.1688 103.518 35.6433 103.043C36.1178 102.569 36.4942 102.006 36.751 101.386C37.0078 100.766 37.14 100.101 37.14 99.43Z" fill="white" stroke="white" stroke-width="1.44" stroke-miterlimit="10"/>
<path d="M58.23 100.88V82.82C58.2582 82.5013 58.4048 82.2048 58.6408 81.9888C58.8768 81.7728 59.1851 81.653 59.505 81.653C59.8249 81.653 60.1332 81.7728 60.3692 81.9888C60.6052 82.2048 60.7518 82.5013 60.78 82.82V105.82C60.8051 105.994 60.7894 106.171 60.7339 106.338C60.6785 106.505 60.5849 106.656 60.4606 106.781C60.3364 106.905 60.1848 106.998 60.0181 107.054C59.8513 107.109 59.6739 107.125 59.5 107.1C59.2713 107.114 59.0437 107.06 58.8448 106.947C58.6459 106.833 58.4844 106.664 58.38 106.46L48 87.74V105.81C48 106.149 47.8651 106.475 47.6251 106.715C47.385 106.955 47.0595 107.09 46.72 107.09C46.3805 107.09 46.055 106.955 45.8149 106.715C45.5749 106.475 45.44 106.149 45.44 105.81V82.81C45.4166 82.6368 45.4337 82.4606 45.4899 82.2951C45.5461 82.1297 45.6399 81.9795 45.7639 81.8564C45.888 81.7333 46.0389 81.6407 46.2048 81.5858C46.3707 81.5309 46.547 81.5152 46.72 81.54C46.9674 81.5408 47.2096 81.6117 47.4184 81.7444C47.6273 81.8771 47.7942 82.0663 47.9 82.29L58.23 100.88Z" fill="white" stroke="white" stroke-width="1.44" stroke-miterlimit="10"/>
<path d="M67.56 107.09C67.3864 107.116 67.2093 107.1 67.0428 107.045C66.8764 106.989 66.7252 106.895 66.6017 106.771C66.4781 106.646 66.3855 106.494 66.3314 106.328C66.2772 106.161 66.2631 105.983 66.29 105.81V82.81C66.3183 82.4914 66.4648 82.1948 66.7008 81.9789C66.9368 81.7629 67.2451 81.6431 67.565 81.6431C67.8849 81.6431 68.1932 81.7629 68.4292 81.9789C68.6652 82.1948 68.8118 82.4914 68.84 82.81V105.81C68.8651 105.984 68.8494 106.161 68.7939 106.328C68.7385 106.495 68.6449 106.646 68.5207 106.771C68.3964 106.895 68.2449 106.989 68.0781 107.044C67.9113 107.099 67.7339 107.115 67.56 107.09Z" fill="white" stroke="white" stroke-width="1.44" stroke-miterlimit="10"/>
<path d="M96.4 92.91C99.35 94.35 100.83 96.53 100.83 99.43C100.825 100.484 100.575 101.523 100.1 102.463C99.6242 103.404 98.9361 104.221 98.09 104.85C96.229 106.355 93.893 107.149 91.5 107.09H83.72C82.72 107.09 82.16 106.67 82.16 105.81V82.81C82.16 81.96 82.68 81.54 83.72 81.54H91.5C93.4965 81.4839 95.4473 82.1436 97 83.4C97.7012 83.9283 98.2697 84.6128 98.6602 85.3991C99.0508 86.1855 99.2527 87.052 99.25 87.93C99.2486 88.9361 98.985 89.9246 98.4853 90.7979C97.9855 91.6711 97.2668 92.3991 96.4 92.91ZM84.73 84.1V91.76H91.61C92.9169 91.7992 94.2001 91.4055 95.26 90.64C95.721 90.3537 96.1013 89.9546 96.365 89.4804C96.6287 89.0062 96.7671 88.4726 96.7671 87.93C96.7671 87.3874 96.6287 86.8537 96.365 86.3795C96.1013 85.9053 95.721 85.5062 95.26 85.22C94.1977 84.4592 92.9162 84.0659 91.61 84.1H84.73ZM84.73 94.32V104.54H91.54C93.2721 104.592 94.973 104.071 96.38 103.06C96.9868 102.668 97.4858 102.131 97.8313 101.497C98.1768 100.863 98.3579 100.152 98.3579 99.43C98.3579 98.7078 98.1768 97.9972 97.8313 97.363C97.4858 96.7289 96.9868 96.1915 96.38 95.8C94.975 94.7845 93.2727 94.2639 91.54 94.32H84.73Z" fill="white" stroke="white" stroke-width="1.59" stroke-miterlimit="10"/>
<path d="M121 82.82V99.43C120.928 101.415 120.089 103.295 118.66 104.674C117.23 106.053 115.321 106.823 113.335 106.823C111.349 106.823 109.44 106.053 108.01 104.674C106.581 103.295 105.742 101.415 105.67 99.43V82.82C105.67 82.4806 105.805 82.155 106.045 81.9149C106.285 81.6749 106.611 81.54 106.95 81.54C107.289 81.54 107.615 81.6749 107.855 81.9149C108.095 82.155 108.23 82.4806 108.23 82.82V99.43C108.23 100.785 108.768 102.085 109.727 103.043C110.685 104.002 111.985 104.54 113.34 104.54C114.695 104.54 115.995 104.002 116.953 103.043C117.912 102.085 118.45 100.785 118.45 99.43V82.82C118.478 82.5014 118.625 82.2048 118.861 81.9889C119.097 81.7729 119.405 81.6531 119.725 81.6531C120.045 81.6531 120.353 81.7729 120.589 81.9889C120.825 82.2048 120.972 82.5014 121 82.82Z" fill="white" stroke="white" stroke-width="1.44" stroke-miterlimit="10"/>
<path d="M139.54 100.88V82.82C139.54 82.4805 139.675 82.1549 139.915 81.9149C140.155 81.6748 140.481 81.54 140.82 81.54C141.159 81.54 141.485 81.6748 141.725 81.9149C141.965 82.1549 142.1 82.4805 142.1 82.82V105.82C142.125 105.994 142.109 106.171 142.054 106.338C141.998 106.505 141.905 106.656 141.781 106.781C141.656 106.905 141.505 106.998 141.338 107.054C141.171 107.109 140.994 107.125 140.82 107.1C140.591 107.115 140.363 107.062 140.164 106.948C139.965 106.834 139.803 106.665 139.7 106.46L129.32 87.74V105.81C129.336 105.987 129.314 106.165 129.257 106.333C129.2 106.502 129.109 106.656 128.989 106.787C128.869 106.918 128.723 107.023 128.561 107.094C128.398 107.166 128.223 107.203 128.045 107.203C127.867 107.203 127.692 107.166 127.529 107.094C127.367 107.023 127.221 106.918 127.101 106.787C126.981 106.656 126.89 106.502 126.833 106.333C126.776 106.165 126.754 105.987 126.77 105.81V82.81C126.747 82.6368 126.764 82.4606 126.82 82.2951C126.876 82.1297 126.97 81.9795 127.094 81.8564C127.218 81.7333 127.369 81.6407 127.535 81.5858C127.701 81.5309 127.877 81.5152 128.05 81.54C128.297 81.542 128.539 81.6133 128.747 81.7459C128.956 81.8785 129.123 82.067 129.23 82.29L139.54 100.88Z" fill="white" stroke="white" stroke-width="1.44" stroke-miterlimit="10"/>
<path d="M148.88 107.09C148.706 107.115 148.529 107.099 148.362 107.044C148.195 106.989 148.044 106.895 147.919 106.771C147.795 106.646 147.702 106.495 147.646 106.328C147.591 106.161 147.575 105.984 147.6 105.81V82.81C147.6 82.4706 147.735 82.145 147.975 81.9049C148.215 81.6649 148.541 81.53 148.88 81.53C149.219 81.53 149.545 81.6649 149.785 81.9049C150.025 82.145 150.16 82.4706 150.16 82.81V105.81C150.185 105.984 150.169 106.161 150.114 106.328C150.058 106.495 149.965 106.646 149.841 106.771C149.716 106.895 149.565 106.989 149.398 107.044C149.231 107.099 149.054 107.115 148.88 107.09Z" fill="white" stroke="white" stroke-width="1.44" stroke-miterlimit="10"/>
</g>
<defs>
<clipPath id="clip0_443_2014">
<rect width="150.88" height="107.89" fill="white"/>
</clipPath>
</defs>
</svg>
