<svg xmlns="http://www.w3.org/2000/svg" viewBox="0 0 202.51 203.88"><defs><style>.cls-1,.cls-2,.cls-3,.cls-4,.cls-5{stroke:#000;stroke-miterlimit:10;}.cls-1{stroke-width:0.5px;}.cls-2{stroke-width:1.45px;}.cls-3{stroke-width:1.44px;}.cls-4{stroke-width:1.59px;}.cls-5{fill:none;stroke-linecap:round;stroke-width:4px;}</style></defs><title>Asset 6</title><g id="Layer_2" data-name="Layer 2"><g id="Layer_1-2" data-name="Layer 1"><path class="cls-1" d="M76.53,116.86a6.93,6.93,0,0,0-.72.26l1.93,1.93a1.38,1.38,0,0,0,.44-1.21A1.24,1.24,0,0,0,76.53,116.86ZM73,109.22a22.54,22.54,0,0,0-2.73.28c-.58.1-1.16.22-1.74.34l2.38,2.38,1.73-.43a4.06,4.06,0,0,0,.87-.35,1.23,1.23,0,0,0,.71-1.29A1.22,1.22,0,0,0,73,109.22Zm21.73,12.55A6,6,0,0,0,89,116.42c-.35,0-.5-.11-.5-.45a1.31,1.31,0,0,0-.06-.27,24.35,24.35,0,0,0-2.94-8.43.63.63,0,0,1,0-.77,14.74,14.74,0,0,0,2.57-8.3,16.55,16.55,0,0,0-2.5-8.92.61.61,0,0,1,0-.82c.27-.34.53-.68.78-1A43.41,43.41,0,0,0,89.6,82.3a21.64,21.64,0,0,0,2.89-7.8,5.39,5.39,0,0,0-.87-4,4.6,4.6,0,0,0-4.91-1.69,12.11,12.11,0,0,0-5.77,2.94,25.3,25.3,0,0,0-4.73,5.51,39.43,39.43,0,0,0-2.31,4.13l-.15.29c0-.07-.06-.11,0-.14a47.66,47.66,0,0,0,1.16-5.63c.09-.64.17-1.28.23-1.92a13.55,13.55,0,0,0-.37-5.34A4.23,4.23,0,0,0,68.44,66a7.41,7.41,0,0,0-2,1.55,10.43,10.43,0,0,0-1,1.27,27.1,27.1,0,0,0-4.2,10.65c-.2,1.06-.29,2.14-.42,3.21,0,.34-.1.61-.49.73a4.66,4.66,0,0,0-.88.4A17.38,17.38,0,0,0,54,88.37a3,3,0,0,0-1.91-1.12,4.19,4.19,0,0,0-3.7,1.33,4.73,4.73,0,0,1-.59.54c-.35.25-.57.15-1.3-.2a5.34,5.34,0,0,0-4.32-.28c-1.94.7-3.47,3.07-1.48,5.42a13.71,13.71,0,0,0,1.22,1.19c.41.36.85.68,1.31,1a2.58,2.58,0,0,1-.24.12,5.76,5.76,0,0,0-3.08,7.37c.12.27,0,.38-.2.53A24.16,24.16,0,0,0,33,113.41a14.4,14.4,0,0,0,7.36,19.12,24.37,24.37,0,0,0,13.77,1.89c1.48-.17,2.93-.57,4.4-.86.12,0,.32,0,.36,0,.27.46.5.94.76,1.44l-.43,0c-2.68,0-5.37.07-8.05.16-3.21.1-6.42.26-9.63.42a9.59,9.59,0,0,0-1.82.35.62.62,0,0,0-.5.65.65.65,0,0,0,.49.63,3.06,3.06,0,0,0,.73.21c1.39.17,2.78.39,4.18.45,4.76.2,9.52.39,14.28.49,3.76.07,7.53,0,11.29,0,6.68,0,13.36-.26,20-.8a23.16,23.16,0,0,0,2.31-.38.55.55,0,0,0,.5-.59,1,1,0,0,0-.44-.61,2.23,2.23,0,0,0-.89-.25c-1.18-.13-2.36-.23-3.54-.35l-1-.09c.21-.38.42-.69.58-1a13.53,13.53,0,0,0,1-3.75.79.79,0,0,1,.13-.4.65.65,0,0,1,.45-.25,6.34,6.34,0,0,0,5.09-4.4A7.94,7.94,0,0,0,94.73,121.77ZM51.94,99.32c-1,.27-1.92.49-2.89.73-.27.07-.55.12-.84.18-.13-.5-.26-1-.39-1.45.81-.22,1.6-.45,2.41-.66.44-.12.88-.24,1.33-.33s1,.06,1.1.48A.9.9,0,0,1,51.94,99.32Zm-8.79-6.64a1.39,1.39,0,0,1-.15-.19c-.44-.58-.28-1.09.41-1.3a4.17,4.17,0,0,1,.51-.09L44,91l1.56.61a11.68,11.68,0,0,0,1.89.64,2.21,2.21,0,0,0,2-.75c.13-.13.25-.28.37-.42a3.87,3.87,0,0,1,.41-.4,3.78,3.78,0,0,1,1-.58.61.61,0,0,1,.77.17.71.71,0,0,1,0,.83c-.24.47-.5.93-.72,1.41,0,0,0,0,0,0A13.42,13.42,0,0,0,50.07,96a.52.52,0,0,1-.3.36c-.88.24-1.77.45-2.67.66a.4.4,0,0,1-.29-.14A31.21,31.21,0,0,0,43.15,92.68Zm.44,6.44c.64-.38,1.11-.25,1.4.43a7.58,7.58,0,0,1,.23.94,2.81,2.81,0,0,1-1,2.14,1.08,1.08,0,0,1-1.82-.65A2.7,2.7,0,0,1,43.59,99.12ZM65.18,125A11.09,11.09,0,0,1,59,130.26a24.38,24.38,0,0,1-9.91,1.33,20,20,0,0,1-6.51-1.33,12,12,0,0,1-7.79-9.18,11.51,11.51,0,0,1,.76-6.5,23.72,23.72,0,0,1,6.24-8.71.5.5,0,0,1,.38-.11,4.49,4.49,0,0,0,5.12-2.23c.23-.39.38-.83.59-1.24a.73.73,0,0,1,.37-.35c.64-.14,1.28-.22,1.91-.35.37-.08.72-.22,1.08-.29a.54.54,0,0,1,.43.11,27,27,0,0,0,4,3.15,41.2,41.2,0,0,1,6.14,5c.48.5.93,1,1.39,1.54-1,.43-2,.8-2.92,1.26a5.89,5.89,0,0,0-2.76,2.75A4.14,4.14,0,0,0,59,120.49a10,10,0,0,0,5,1.59c.71.06,1.42.09,2.18.13A8.18,8.18,0,0,1,65.18,125Zm4.6,10.12a28.29,28.29,0,0,0,1.64-2.93,1.35,1.35,0,0,1,1.49-1c.81,0,.79,0,1.07.76.35,1,.75,1.93,1.13,2.89,0,.08,0,.15.09.24Zm15.87-4.46a13.21,13.21,0,0,1-.57,2.31,3.19,3.19,0,0,1-3,2.24,9.2,9.2,0,0,1-1,0,3.31,3.31,0,0,1-3.15-2.08A18.67,18.67,0,0,1,76.58,129c-.17-.8-.45-1-1.26-.84a35,35,0,0,1-8.44.19,1,1,0,0,1-.24-.05l-.11-.06c.33-.51.69-1,1-1.52A12,12,0,0,0,69,122.39c0-.24.11-.36.38-.4a21.17,21.17,0,0,0,5.44-1.36,22.74,22.74,0,0,0,2.68-1.4,1.3,1.3,0,0,0,.23-.18,1.38,1.38,0,0,0,.44-1.21,1.24,1.24,0,0,0-1.65-1,6.93,6.93,0,0,0-.72.26l-.94.39a23.42,23.42,0,0,1-10.37,1.65,8.25,8.25,0,0,1-3-.68,3.67,3.67,0,0,1-.92-.58,1.49,1.49,0,0,1-.15-2.2,4,4,0,0,1,1.68-1.16,32.26,32.26,0,0,1,5.17-1.44c1.21-.28,2.41-.58,3.61-.88l1.73-.43a4.06,4.06,0,0,0,.87-.35,1.23,1.23,0,0,0,.71-1.29,1.22,1.22,0,0,0-1.22-.93,22.54,22.54,0,0,0-2.73.28c-.58.1-1.16.22-1.74.34l-2.06.43a.52.52,0,0,1-.42-.15,28.91,28.91,0,0,0-7.72-7.07c-1.31-.87-2.65-1.71-4-2.57L54,100.2c.73-2.35.55-3-1.25-4.36.2-.4.38-.81.58-1.22s.45-.94.7-1.4A18.06,18.06,0,0,1,63.12,85a.87.87,0,0,0,.59-.9,26.68,26.68,0,0,1,2.78-11.54,21.57,21.57,0,0,1,2-3,.35.35,0,0,1,0-.08,2.88,2.88,0,0,1,1.79-1.19,1.24,1.24,0,0,1,1.35.59A4.15,4.15,0,0,1,72.29,71a15.63,15.63,0,0,1,0,2.37h0a29.86,29.86,0,0,1-.59,3.85c-.39,1.8-.82,3.6-1.23,5.4a1.49,1.49,0,0,0,0,.36c0,.62.17.85.77,1,.87.15,1.72.32,2.58.49a5.64,5.64,0,0,1,.7.21.84.84,0,0,0,1.18-.52c.62-1.22,1.2-2.48,1.88-3.67.22-.39.45-.77.7-1.14a21.88,21.88,0,0,1,5.59-6.12,7.32,7.32,0,0,1,3.67-1.57,1.74,1.74,0,0,1,2.07,1.74,7.6,7.6,0,0,1-.63,3.23,36.51,36.51,0,0,1-4.71,8.71l-.08.12c-.63.89-1.32,1.74-2,2.62a1,1,0,0,0,0,1.45,13.82,13.82,0,0,1,2.76,10.21,12.12,12.12,0,0,1-2.75,6.42l-.18.23c-.41.55-.37.72,0,1.3a30.5,30.5,0,0,1,1.71,2.92,24.18,24.18,0,0,1,1.92,6.67A43.93,43.93,0,0,1,86,127.33C85.93,128.43,85.81,129.54,85.65,130.65Zm6.25-7a3.52,3.52,0,0,1-2.69,3.42H89v-7.87a2.27,2.27,0,0,1,1.59.42,2.68,2.68,0,0,1,1.31,2.52C91.88,122.69,91.89,123.19,91.9,123.69Z"/><path class="cls-1" d="M78,85a8.68,8.68,0,0,1,.3-1.1,11.45,11.45,0,0,1,3-4.64,2.53,2.53,0,0,1,1.12-.59,1.17,1.17,0,0,1,1.45,1.47,7.2,7.2,0,0,1-.61,1.62,15.78,15.78,0,0,1-2.54,3.68,4.49,4.49,0,0,1-.93.76C78.8,86.76,78,86.29,78,85Z"/><path class="cls-1" d="M62.55,100.59a1.51,1.51,0,0,1-1.69.1,1.35,1.35,0,0,1-.63-1.24c0-.26.13-.54.42-.57s.39.15.58.25.12.13.2.22a1.36,1.36,0,0,0,.65-1c0-.07-.1-.2-.18-.27a2.08,2.08,0,0,1-.81-1.27,1,1,0,0,1,.85-1.22,4.82,4.82,0,0,1,3,.47.93.93,0,0,1,.17,1.63,4,4,0,0,1-1.09.59c-.25.1-.35.23-.33.47a3.94,3.94,0,0,0,.08.6c.1.4.25.46.59.23a.57.57,0,0,1,.75,0,.61.61,0,0,1,.09.81,1.53,1.53,0,0,1-2.25.54C62.84,100.84,62.71,100.72,62.55,100.59Z"/><path class="cls-1" d="M73.14,95.92a4.84,4.84,0,0,1-1.07,2.82,2,2,0,0,1-1.78.85,1.65,1.65,0,0,1-1.49-1.65A4.69,4.69,0,0,1,70,94.44a1.83,1.83,0,0,1,1.46-.67C72.54,93.78,73.21,94.63,73.14,95.92Z"/><path class="cls-1" d="M65.85,81.61a11.15,11.15,0,0,1,.93-4.11,2.88,2.88,0,0,1,.52-.81.91.91,0,0,1,1-.31.86.86,0,0,1,.67.78,12.81,12.81,0,0,1-.08,2.48,26.65,26.65,0,0,1-.8,3,2.31,2.31,0,0,1-.51.81.83.83,0,0,1-1.41-.2,10.05,10.05,0,0,1-.4-1.66Z"/><path class="cls-1" d="M55.17,95.76a5.34,5.34,0,0,1,1.11-3.23,1.62,1.62,0,0,1,.37-.37,1.55,1.55,0,0,1,1.59-.28A1.34,1.34,0,0,1,59,93.19a4.81,4.81,0,0,1-1.22,3.42c-.7.78-1.68.87-2.21.18A3.66,3.66,0,0,1,55.17,95.76Z"/><path class="cls-1" d="M52.06,116.83a12.52,12.52,0,0,0-2.22-1.13c-.29-.13-.43-.24-.4-.58.09-1,.13-1.91.19-2.87,0-.14,0-.28.07-.48.54.2,1,.41,1.49.55a1.31,1.31,0,0,0,1.72-1.46,1.44,1.44,0,0,0-.87-1.14c-.69-.3-1.41-.53-2.14-.79,0-.35,0-.74,0-1.13a1.32,1.32,0,0,0-1.3-1.33,1.3,1.3,0,0,0-1.43,1.14c0,.25-.06.51-.08.77-.06.65-.06.65-.69.84a4.44,4.44,0,0,0-3.35,3.92,4,4,0,0,0,2.38,4.06c.38.2.94.28,1.11.59s0,.86,0,1.3c-.05.75-.11,1.5-.17,2.31l-1-.39c-.33-.15-.65-.33-1-.46a1.26,1.26,0,0,0-1.36.26,1.23,1.23,0,0,0-.33,1.38,2.1,2.1,0,0,0,.65.94A9.87,9.87,0,0,0,45,124a8.13,8.13,0,0,0,1.07.33c0,.52,0,1,0,1.49A1.22,1.22,0,0,0,46.9,127a1.47,1.47,0,0,0,2-1.12,6.23,6.23,0,0,0,.09-1c0-.32.09-.46.44-.53a8,8,0,0,0,1.67-.47A4.15,4.15,0,0,0,52.06,116.83Zm-5.2-2.21a1.36,1.36,0,0,1-.78-1.25,1.49,1.49,0,0,1,.93-1.32C47,112.94,46.91,113.75,46.86,114.62Zm2.23,6.82c.06-.91.12-1.78.18-2.65a1.43,1.43,0,0,1,1.21,1.38A1.39,1.39,0,0,1,49.09,121.44Z"/><path class="cls-2" d="M119.19,77.42a1.25,1.25,0,0,0-1.1.56l-1.19,1.77-5.49,8.12-6.65-9.81a1.29,1.29,0,0,0-1.14-.64,1.14,1.14,0,0,0-1.29,1.28v23a1.3,1.3,0,0,0,2.59,0V82.9l5.27,7.8a1.34,1.34,0,0,0,2.42,0l5.29-7.8v18.79a1.3,1.3,0,0,0,2.59,0v-23A1.14,1.14,0,0,0,119.19,77.42Z"/><path class="cls-3" d="M139.06,79.66A7.67,7.67,0,0,0,126,85.08V95.3a7.67,7.67,0,0,0,12.46,6,8,8,0,0,0,.62-.56,7.38,7.38,0,0,0,2.25-5.42V85.08A7.37,7.37,0,0,0,139.06,79.66Zm-.32,15.64a4.93,4.93,0,0,1-1.48,3.63,4.58,4.58,0,0,1-.64.54,5.21,5.21,0,0,1-6.62-.54,5,5,0,0,1-1.48-3.63V85.08a5.11,5.11,0,1,1,10.22,0Z"/><path class="cls-3" d="M161.11,77.42a1.13,1.13,0,0,0-1.28,1.28v18L149.51,78.18a1.29,1.29,0,0,0-1.18-.76,1.13,1.13,0,0,0-1.27,1.28v23a1.28,1.28,0,0,0,2.55,0V83.61L160,102.33a1.2,1.2,0,0,0,1.13.63,1.12,1.12,0,0,0,1.27-1.27v-23A1.13,1.13,0,0,0,161.11,77.42Z"/><path class="cls-3" d="M169.17,77.42a1.13,1.13,0,0,0-1.28,1.28v23a1.28,1.28,0,0,0,2.55,0v-23A1.13,1.13,0,0,0,169.17,77.42Z"/><path class="cls-4" d="M117,120.26a7.33,7.33,0,0,0,1.23-1,5.46,5.46,0,0,0,1.65-4,5.66,5.66,0,0,0-2.26-4.54,8.4,8.4,0,0,0-5.52-1.84h-7.78c-1,0-1.55.42-1.55,1.27v23c0,.85.51,1.28,1.55,1.28h7.78a10.11,10.11,0,0,0,6.6-2.24,6.81,6.81,0,0,0,2.73-5.42Q121.39,122.42,117,120.26Zm-11.67-8.81h6.88a5.91,5.91,0,0,1,3.65,1.12,3.3,3.3,0,0,1,1.52,2.71,3.07,3.07,0,0,1-.93,2.2,4.25,4.25,0,0,1-.59.51,5.91,5.91,0,0,1-3.65,1.12h-6.88Zm11.66,19a7.9,7.9,0,0,1-4.85,1.48h-6.81V121.67h6.81a7.84,7.84,0,0,1,4.85,1.48,4.33,4.33,0,0,1,0,7.26Z"/><path class="cls-3" d="M140.3,108.9a1.12,1.12,0,0,0-1.28,1.27v16.61a5.11,5.11,0,1,1-10.22,0V110.17a1.28,1.28,0,0,0-2.55,0v16.61a5.44,5.44,0,0,0,0,.57,7.61,7.61,0,0,0,7.06,7.06,5.44,5.44,0,0,0,.57,0,7.65,7.65,0,0,0,7.66-7.66V110.17A1.12,1.12,0,0,0,140.3,108.9Z"/><path class="cls-3" d="M161.38,108.9a1.12,1.12,0,0,0-1.27,1.27v18.06l-6.58-11.85-3.74-6.73a1.31,1.31,0,0,0-1.18-.75,1.13,1.13,0,0,0-1.28,1.27v23a1.28,1.28,0,1,0,2.56,0V115.09l10.37,18.71a1.18,1.18,0,0,0,1.12.64,1.13,1.13,0,0,0,1.28-1.28v-23A1.13,1.13,0,0,0,161.38,108.9Z"/><path class="cls-3" d="M169.44,108.9a1.12,1.12,0,0,0-1.27,1.27v23a1.13,1.13,0,0,0,1.27,1.28c.72,0,1.14-.3,1.24-.91a1.45,1.45,0,0,0,0-.37v-23A1.12,1.12,0,0,0,169.44,108.9Z"/><path class="cls-5" d="M52.06,14.91A99.49,99.49,0,0,1,101.21,2a97.82,97.82,0,0,1,11.29.64,99.93,99.93,0,0,1,88,88"/><path class="cls-5" d="M2,114a99.94,99.94,0,0,0,146.63,76"/></g></g></svg>