<svg xmlns="http://www.w3.org/2000/svg" viewBox="0 0 69.84 58.54"><defs><style>.cls-1,.cls-2,.cls-3{stroke:#000;stroke-miterlimit:10;}.cls-1{stroke-width:1.45px;}.cls-2{stroke-width:1.44px;}.cls-3{stroke-width:1.59px;}</style></defs><title>Asset 4</title><g id="Layer_2" data-name="Layer 2"><g id="Layer_1-2" data-name="Layer 1"><path class="cls-1" d="M17.59.73A1.13,1.13,0,0,1,18.89,2V25a1.14,1.14,0,0,1-1.3,1.28A1.14,1.14,0,0,1,16.3,25V6.2L11,14a1.48,1.48,0,0,1-1.2.77A1.47,1.47,0,0,1,8.59,14L3.32,6.2V25A1.14,1.14,0,0,1,2,26.27,1.14,1.14,0,0,1,.73,25V2A1.13,1.13,0,0,1,2,.73a1.33,1.33,0,0,1,1.14.63l6.65,9.82,6.68-9.89A1.23,1.23,0,0,1,17.59.73Z"/><path class="cls-2" d="M39.69,18.61A7.66,7.66,0,0,1,32,26.27a7.66,7.66,0,0,1-7.66-7.66V8.39A7.41,7.41,0,0,1,26.61,3,7.7,7.7,0,0,1,37.46,3a7.39,7.39,0,0,1,2.23,5.43Zm-2.55,0V8.39a5.11,5.11,0,1,0-10.22,0V18.61a5.11,5.11,0,1,0,10.22,0Z"/><path class="cls-2" d="M58.23,20.06V2a1.28,1.28,0,0,1,2.55,0V25a1.13,1.13,0,0,1-1.28,1.28,1.18,1.18,0,0,1-1.12-.64L48,6.92V25a1.28,1.28,0,0,1-2.56,0V2A1.13,1.13,0,0,1,46.73.73a1.31,1.31,0,0,1,1.18.75Z"/><path class="cls-2" d="M67.56,26.27A1.13,1.13,0,0,1,66.29,25V2a1.28,1.28,0,0,1,2.55,0V25A1.13,1.13,0,0,1,67.56,26.27Z"/><path class="cls-3" d="M15.36,43.56q4.42,2.17,4.43,6.52a6.8,6.8,0,0,1-2.73,5.42,10.08,10.08,0,0,1-6.6,2.25H2.68c-1,0-1.56-.43-1.56-1.28v-23c0-.85.52-1.28,1.56-1.28h7.78A8.42,8.42,0,0,1,16,34.05a5.66,5.66,0,0,1,2.25,4.54A5.76,5.76,0,0,1,15.36,43.56ZM3.69,34.76v7.66h6.88a6,6,0,0,0,3.65-1.12,3.18,3.18,0,0,0,0-5.42,5.93,5.93,0,0,0-3.65-1.12ZM3.69,45V55.19H10.5a7.81,7.81,0,0,0,4.84-1.48,4.32,4.32,0,0,0,0-7.26A7.87,7.87,0,0,0,10.5,45Z"/><path class="cls-2" d="M40,33.48v16.6a7.66,7.66,0,0,1-7.66,7.67,7.68,7.68,0,0,1-7.67-7.67V33.48a1.13,1.13,0,0,1,1.28-1.28,1.13,1.13,0,0,1,1.28,1.28v16.6a5.11,5.11,0,1,0,10.22,0V33.48a1.28,1.28,0,1,1,2.55,0Z"/><path class="cls-2" d="M58.5,51.53V33.48a1.28,1.28,0,0,1,2.56,0v23a1.13,1.13,0,0,1-1.28,1.28,1.2,1.2,0,0,1-1.12-.64L48.29,38.39V56.47a1.28,1.28,0,0,1-2.56,0v-23A1.13,1.13,0,0,1,47,32.2a1.3,1.3,0,0,1,1.18.76Z"/><path class="cls-2" d="M67.84,57.75a1.13,1.13,0,0,1-1.27-1.28v-23a1.28,1.28,0,1,1,2.55,0v23A1.13,1.13,0,0,1,67.84,57.75Z"/></g></g></svg>