<svg xmlns="http://www.w3.org/2000/svg" viewBox="0 0 150.88 27.13"><defs><style>.cls-1,.cls-2,.cls-3{stroke:#000;stroke-miterlimit:10;}.cls-1{stroke-width:1.45px;}.cls-2{stroke-width:1.44px;}.cls-3{stroke-width:1.59px;}</style></defs><title>Asset 7</title><g id="Layer_2" data-name="Layer 2"><g id="Layer_1-2" data-name="Layer 1"><path class="cls-1" d="M17.59.79a1.14,1.14,0,0,1,1.3,1.28v23a1.14,1.14,0,0,1-1.3,1.28,1.14,1.14,0,0,1-1.29-1.28V6.27L11,14.07a1.48,1.48,0,0,1-1.2.77,1.47,1.47,0,0,1-1.22-.77L3.32,6.27V25.06A1.14,1.14,0,0,1,2,26.34,1.14,1.14,0,0,1,.73,25.06v-23A1.14,1.14,0,0,1,2,.79a1.34,1.34,0,0,1,1.14.64l6.65,9.81,6.68-9.88A1.24,1.24,0,0,1,17.59.79Z"/><path class="cls-2" d="M39.69,18.68A7.66,7.66,0,0,1,32,26.34a7.66,7.66,0,0,1-7.66-7.66V8.46A7.41,7.41,0,0,1,26.61,3,7.68,7.68,0,0,1,37.46,3a7.39,7.39,0,0,1,2.23,5.43Zm-2.55,0V8.46a5.11,5.11,0,1,0-10.22,0V18.68a5.13,5.13,0,0,0,8.74,3.62A4.9,4.9,0,0,0,37.14,18.68Z"/><path class="cls-2" d="M58.23,20.13V2.07a1.28,1.28,0,1,1,2.55,0v23a1.13,1.13,0,0,1-1.28,1.28,1.18,1.18,0,0,1-1.12-.64L48,7V25.06a1.28,1.28,0,0,1-2.56,0v-23A1.13,1.13,0,0,1,46.73.79a1.32,1.32,0,0,1,1.18.76Z"/><path class="cls-2" d="M67.56,26.34a1.13,1.13,0,0,1-1.27-1.28v-23a1.28,1.28,0,1,1,2.55,0v23A1.13,1.13,0,0,1,67.56,26.34Z"/><path class="cls-3" d="M96.4,12.15c2.95,1.45,4.43,3.62,4.43,6.53a6.76,6.76,0,0,1-2.74,5.41,10,10,0,0,1-6.59,2.25H83.72c-1,0-1.56-.43-1.56-1.28v-23c0-.85.52-1.28,1.56-1.28H91.5A8.42,8.42,0,0,1,97,2.64a5.67,5.67,0,0,1,2.25,4.54A5.76,5.76,0,0,1,96.4,12.15ZM84.73,3.35V11h6.88a5.93,5.93,0,0,0,3.65-1.12,3.29,3.29,0,0,0,1.51-2.71,3.29,3.29,0,0,0-1.51-2.71,5.93,5.93,0,0,0-3.65-1.12Zm0,10.22V23.78h6.81a7.83,7.83,0,0,0,4.84-1.48,4.31,4.31,0,0,0,0-7.25,7.83,7.83,0,0,0-4.84-1.48Z"/><path class="cls-2" d="M121,2.07V18.68a7.35,7.35,0,0,1-2.25,5.41,7.64,7.64,0,0,1-10.83,0,7.35,7.35,0,0,1-2.25-5.41V2.07a1.28,1.28,0,1,1,2.56,0V18.68a5.11,5.11,0,1,0,10.22,0V2.07a1.28,1.28,0,1,1,2.55,0Z"/><path class="cls-2" d="M139.54,20.13V2.07a1.28,1.28,0,0,1,2.56,0v23a1.13,1.13,0,0,1-1.28,1.28,1.17,1.17,0,0,1-1.12-.64L129.32,7V25.06a1.28,1.28,0,1,1-2.55,0v-23A1.13,1.13,0,0,1,128.05.79a1.33,1.33,0,0,1,1.18.76Z"/><path class="cls-2" d="M148.88,26.34a1.13,1.13,0,0,1-1.28-1.28v-23a1.28,1.28,0,1,1,2.56,0v23A1.13,1.13,0,0,1,148.88,26.34Z"/></g></g></svg>